<?xml version="1.0" encoding="utf-8"?>
<!-- Generator: Adobe Illustrator 16.0.0, SVG Export Plug-In . SVG Version: 6.00 Build 0)  -->
<!DOCTYPE svg PUBLIC "-//W3C//DTD SVG 1.0//EN" "http://www.w3.org/TR/2001/REC-SVG-20010904/DTD/svg10.dtd">
<svg version="1.0" id="Layer_1" xmlns="http://www.w3.org/2000/svg" xmlns:xlink="http://www.w3.org/1999/xlink" x="0px" y="0px"
	 width="150px" height="60px" viewBox="14 4 150 60" enable-background="new 14 4 150 60" xml:space="preserve">
<g>
	<path fill-rule="evenodd" clip-rule="evenodd" fill="#D8C663" d="M131.889,15.223c0.342-0.038,0.55-0.082,0.756-0.08
		c6.09,0.013,12.181-0.016,18.271,0.075c2.279,0.033,4.344,0.807,5.945,2.565c2.016,2.213,2.458,6.699,0.847,9.229
		c-0.387,0.607-0.839,1.186-1.347,1.693c-0.483,0.482-1.078,0.853-1.578,1.24c0.991,0.762,2.026,1.444,2.921,2.278
		c0.943,0.88,1.554,2.001,1.78,3.313c0.111,0.643,0.499,1.275,0.468,1.898c-0.16,3.334-1.615,5.866-4.726,7.35
		c-2.055,0.979-4.26,1.355-6.469,1.401c-5.357,0.111-10.718,0.023-16.077,0.053c-0.785,0.004-0.798-0.407-0.797-0.974
		c0.007-5.512,0.001-11.023,0.001-16.536c0-4.111,0.004-8.223,0.005-12.333C131.889,16.033,131.889,15.672,131.889,15.223z
		 M140.184,20.001c0.012-0.021-0.039,0.033-0.041,0.085c-0.005,6.968-0.013,13.934,0.02,20.902c0,0.213,0.402,0.59,0.635,0.604
		c1,0.07,2.012,0.091,3.011,0.02c1.658-0.119,3.327-0.229,4.96-0.519c1.525-0.271,2.552-1.529,2.759-3.027
		c0.385-2.768-1.011-4.677-3.829-5.045c-1.378-0.18-2.789-0.134-4.184-0.173c-0.738-0.021-1.479-0.004-2.325-0.004
		c0.633-1.767,1.234-3.354,1.764-4.965c0.179-0.545,0.458-0.662,0.987-0.677c1.303-0.038,2.642,0.008,3.895-0.284
		c1.739-0.404,2.714-1.407,2.59-3.691c-0.105-1.949-0.757-3.021-2.679-3.177C145.275,19.849,142.776,20.001,140.184,20.001z"/>
	<path fill-rule="evenodd" clip-rule="evenodd" fill="#D8C663" d="M83.988,46.928c-6.849,0.082-10.936-1.327-14.37-4.306
		c-5.008-4.344-6.757-9.862-5.05-16.264c1.039-3.897,3.54-6.877,6.95-9.044c4.248-2.699,8.907-3.611,13.808-2.637
		c6.165,1.226,10.821,4.618,13.212,10.552c1.56,3.871,1.489,7.878-0.366,11.683C94.841,43.743,89.083,46.704,83.988,46.928z
		 M91.205,29.175c-0.021-1.691-1.102-4.399-3.375-6.622c-3.002-2.936-7.778-3.289-11.123-0.831
		c-2.202,1.617-3.496,3.764-4.175,6.409c-1.015,3.951,0.634,9.099,4.211,11.548c2.984,2.043,7.228,2.125,10.025,0.004
		C89.748,37.424,91.226,34.393,91.205,29.175z"/>
	<path fill-rule="evenodd" clip-rule="evenodd" fill="#D8C663" d="M128.387,22.288c-1.114-0.532-2.086-1.106-3.13-1.477
		c-4.216-1.5-8.148-0.907-11.645,1.903c-3.347,2.689-4.602,6.244-3.605,10.397c0.784,3.279,2.905,5.644,5.985,7.04
		c4.076,1.848,8.028,1.519,11.805-0.891c0.142-0.09,0.306-0.146,0.588-0.276c0,1.931,0.049,3.748-0.046,5.558
		c-0.016,0.317-0.584,0.711-0.979,0.888c-2.954,1.316-6.077,1.674-9.276,1.495c-4.078-0.229-7.743-1.627-10.855-4.24
		c-5.197-4.365-7.24-10.574-4.93-17.153c1.512-4.309,4.633-7.331,8.762-9.289c3.892-1.846,7.978-2.361,12.182-1.571
		c1.593,0.3,3.118,0.975,4.655,1.535c0.222,0.082,0.464,0.475,0.469,0.729C128.407,18.698,128.387,20.462,128.387,22.288z"/>
	<path fill-rule="evenodd" clip-rule="evenodd" fill="#D8C663" d="M17.883,24.918c0.13-0.386,0.253-0.775,0.392-1.159
		c1.069-2.959,2.694-5.581,4.932-7.789c3.281-3.236,7.226-5.091,11.798-5.798c4.636-0.716,8.875,0.39,12.897,2.499
		c1.108,0.58,2.146,1.573,2.833,2.625c1.526,2.339,0.858,4.987-1.923,6.645c-2.483,1.48-5.267,1.806-8.03,1.442
		c-3.3-0.435-6.542-1.3-9.828-1.867c-4.238-0.731-8.306-0.411-11.836,2.414c-0.396,0.316-0.739,0.699-1.107,1.052
		C17.968,24.959,17.925,24.938,17.883,24.918z"/>
	<path fill-rule="evenodd" clip-rule="evenodd" fill="#D8C663" d="M57.602,36.039c-0.945,3.508-2.662,6.337-5.021,8.819
		c-2.76,2.905-6.095,4.788-9.959,5.748c-5.398,1.34-10.521,0.503-15.296-2.244c-1.085-0.624-2.076-1.648-2.74-2.718
		c-1.574-2.536-0.197-5.082,2.158-6.435c1.871-1.075,3.913-1.428,6.049-1.442c2.695-0.018,5.308,0.394,7.92,1.067
		c2.167,0.56,4.406,0.989,6.634,1.118C51.217,40.176,54.761,39.204,57.602,36.039z"/>
	<path fill-rule="evenodd" clip-rule="evenodd" fill="#D8C663" d="M52.671,16.438c2.193,2.287,3.655,4.736,4.581,7.509
		c0.836,2.504,1.339,5.025,0.803,7.695c-0.727,3.612-3.509,6.206-7.214,6.813c-1.743,0.284-3.568,0.069-5.356,0.085
		c-0.558,0.005-0.708-0.283-0.706-0.811c0.017-4.078,0.023-8.156,0-12.235c-0.004-0.676,0.25-0.888,0.889-1.094
		c1.46-0.472,2.969-0.942,4.272-1.724C52.141,21.354,53.033,19.258,52.671,16.438z"/>
	<path fill-rule="evenodd" clip-rule="evenodd" fill="#D8C663" d="M22.636,44.622c-1.693-1.846-2.903-3.79-3.861-5.908
		c-0.888-1.962-1.338-4.031-1.53-6.162c-0.386-4.298,1.834-8.118,6.069-9.472c2.167-0.692,4.361-0.724,6.588-0.452
		c0.525,0.064,0.708,0.279,0.706,0.82c-0.019,4.14-0.021,8.279,0.005,12.419c0.003,0.586-0.245,0.72-0.748,0.898
		c-1.476,0.525-3.001,1.003-4.342,1.783C23.325,39.83,22.501,41.936,22.636,44.622z"/>
	<path fill-rule="evenodd" clip-rule="evenodd" fill="#D8C663" d="M140.519,57.722c0-0.726,0.05-1.304-0.021-1.866
		c-0.034-0.275-0.328-0.51-0.445-0.788c-0.097-0.23-0.171-0.711-0.146-0.717c0.914-0.275,0.548-1.02,0.603-1.595
		c0.026-0.298,0.004-0.602,0.004-0.885c1.51-0.543,3.608-0.244,4.3,0.584c0.645,0.773,0.828,3.096,0.281,3.998
		C143.998,58.258,142.224,57.577,140.519,57.722z M144.364,54.61c-0.006-1.475-0.733-2.138-2.151-2.024
		c-0.526,0.042-0.67,0.293-0.664,0.762c0.007,0.447-0.015,0.852,0.627,0.886c0.217,0.011,0.422,0.276,0.631,0.425
		c-0.21,0.14-0.425,0.403-0.631,0.398c-0.788-0.017-0.583,0.542-0.608,0.955c-0.03,0.475,0.07,0.812,0.696,0.797
		C143.587,56.773,144.37,55.988,144.364,54.61z"/>
	<path fill-rule="evenodd" clip-rule="evenodd" fill="#D8C663" d="M156.281,58.771c2.143,0.387,2.456,0.218,2.373-1.261
		c-0.486,0.086-0.984,0.295-1.445,0.232c-1.394-0.196-2.036-2.144-1.209-3.518c0.692-1.153,2.592-1.633,3.721-0.908
		c0.154,0.099,0.262,0.387,0.264,0.59c0.018,1.427,0.032,2.855-0.009,4.28c-0.035,1.18-1.208,1.989-2.46,1.76
		C156.358,59.733,156.358,59.733,156.281,58.771z M158.713,55.166c0.045-0.017,0.092-0.034,0.137-0.053
		c-0.151-0.36-0.246-0.977-0.466-1.024c-0.368-0.08-0.945,0.078-1.207,0.354c-0.502,0.526-0.682,1.264-0.217,1.915
		c0.185,0.258,0.813,0.533,0.945,0.431c0.354-0.283,0.564-0.756,0.798-1.172C158.768,55.501,158.713,55.317,158.713,55.166z"/>
	<path fill-rule="evenodd" clip-rule="evenodd" fill="#D8C663" d="M68.846,57.636c-0.923,0.249-1.439,0.032-1.822-0.808
		c-0.484-1.061-1.162-2.032-1.97-3.007c0,1.265,0,2.53,0,3.854c-0.396,0.022-0.653,0.036-0.965,0.053
		c-0.032-0.227-0.077-0.399-0.078-0.57c-0.003-1.52-0.016-3.038,0.016-4.558c0.006-0.308,0.125-0.83,0.3-0.88
		c0.475-0.136,1.014-0.156,1.324,0.447c0.485,0.944,1.009,1.868,1.527,2.795c0.14,0.251,0.312,0.485,0.469,0.726
		c0.095-0.018,0.19-0.036,0.285-0.054c0-0.887-0.04-1.776,0.017-2.66c0.028-0.443-0.348-1.228,0.391-1.26
		c0.914-0.04,0.463,0.827,0.481,1.266C68.885,54.521,68.846,56.067,68.846,57.636z"/>
	<path fill-rule="evenodd" clip-rule="evenodd" fill="#D8C663" d="M70.298,58.775c2.146,0.424,2.682,0.13,2.491-1.231
		c-0.053-0.025-0.117-0.083-0.158-0.07c-1.569,0.505-2.331,0.255-2.671-0.878c-0.491-1.634,0.209-3.171,1.683-3.469
		c0.596-0.121,1.257,0.019,1.877,0.112c0.142,0.021,0.339,0.339,0.343,0.523c0.028,1.551,0.018,3.103,0.018,4.652
		c0,0.784-0.432,1.36-1.142,1.436c-0.747,0.078-1.53-0.119-2.283-0.267C70.365,59.567,70.359,59.111,70.298,58.775z M72.888,55.097
		c-0.104-0.378,0.271-1.059-0.602-1.094c-0.886-0.037-1.438,0.564-1.432,1.596c0.004,0.646,0.121,1.238,0.961,1.239
		C72.525,56.84,72.877,56.278,72.888,55.097z"/>
	<path fill-rule="evenodd" clip-rule="evenodd" fill="#D8C663" d="M133.412,58.773c2.376,0.323,2.604,0.195,2.458-1.249
		c-0.056-0.017-0.127-0.065-0.163-0.047c-0.763,0.401-1.526,0.505-2.176-0.169c-0.669-0.691-0.818-1.551-0.523-2.455
		c0.323-0.991,0.97-1.668,2.051-1.811c0.299-0.04,0.607-0.018,0.91,0.004c0.779,0.056,1.153,0.354,1.073,1.265
		c-0.106,1.204-0.017,2.429,0.012,3.644c0.02,0.741-0.112,1.39-0.829,1.781c-0.834,0.453-1.665,0.227-2.459-0.076
		C133.59,59.595,133.556,59.158,133.412,58.773z M135.946,55.295c0.028-1.139-0.033-1.262-0.578-1.28
		c-0.777-0.028-1.45,0.688-1.42,1.571c0.022,0.649,0.224,1.284,1.018,1.241C136.019,56.77,135.855,55.871,135.946,55.295z"/>
	<path fill-rule="evenodd" clip-rule="evenodd" fill="#D8C663" d="M102.21,58.73c2.119,0.493,2.683,0.188,2.415-1.32
		c-0.284,0.102-0.56,0.208-0.842,0.294c-0.695,0.215-1.505-0.141-1.821-0.792c-0.458-0.944-0.319-2.459,0.288-3.114
		c0.659-0.716,2.158-1.019,3.145-0.59c0.16,0.069,0.318,0.355,0.32,0.543c0.023,1.638,0.036,3.277-0.005,4.915
		c-0.02,0.856-0.998,1.501-2.023,1.296C103.048,59.834,102.013,60.047,102.21,58.73z M104.951,54.951
		c-0.244-0.314-0.441-0.84-0.738-0.902c-0.838-0.179-1.439,0.46-1.455,1.403c-0.009,0.645-0.029,1.329,0.886,1.385
		C104.368,56.88,104.714,56.33,104.951,54.951z"/>
	<path fill-rule="evenodd" clip-rule="evenodd" fill="#D8C663" d="M87.808,57.665c-0.436,0-0.727,0-1.086,0c0-2.016,0-3.979,0-5.958
		c0.824-0.211,1.17,0.072,1.1,0.958c-0.033,0.424,0.035,1.187,0.207,1.232c0.622,0.165,1.311,0.119,1.97,0.082
		c0.105-0.006,0.25-0.369,0.271-0.578c0.041-0.422-0.058-0.864,0.034-1.269c0.044-0.197,0.384-0.45,0.594-0.451
		c0.193-0.003,0.556,0.293,0.56,0.463c0.042,1.817,0.026,3.637,0.026,5.521c-0.355,0-0.727,0-1.18,0c0-0.687-0.037-1.32,0.011-1.948
		c0.042-0.561-0.164-0.733-0.711-0.764c-1.811-0.096-1.811-0.116-1.796,1.656C87.81,56.938,87.808,57.269,87.808,57.665z"/>
	<path fill-rule="evenodd" clip-rule="evenodd" fill="#D8C663" d="M153.871,57.563c0-0.813,0.072-1.638-0.034-2.438
		c-0.048-0.348-0.469-0.646-0.72-0.969c-0.325,0.293-0.875,0.551-0.932,0.889c-0.137,0.822-0.044,1.684-0.044,2.602
		c-0.445,0-0.784,0-1.172,0c0-1.483,0-2.927,0-4.433c0.339,0,0.634,0.003,0.925,0c0.287-0.004,0.608,0.071,0.852-0.034
		c0.982-0.426,2.014,0.021,2.143,1.063c0.123,0.989,0.154,1.999,0.093,2.992c-0.015,0.228-0.574,0.421-0.882,0.629
		C154.022,57.763,153.946,57.664,153.871,57.563z"/>
	<path fill-rule="evenodd" clip-rule="evenodd" fill="#D8C663" d="M118.588,53.257c0.342,0,0.625,0,1.021,0
		c0,0.864-0.006,1.675,0.001,2.487c0.004,0.549,0.08,1.076,0.8,1.078c0.684,0.002,0.863-0.508,0.89-1.048
		c0.039-0.813,0.011-1.628,0.011-2.527c0.523,0,0.952,0,1.381,0c0.028-0.072,0.056-0.145,0.085-0.218
		c-0.224-0.152-0.446-0.304-0.67-0.456c0.021-0.083,0.042-0.165,0.063-0.247c0.332,0.09,0.877,0.099,0.945,0.284
		c0.107,0.291-0.07,0.713-0.191,1.057c-0.138,0.394-0.466,0.753-0.498,1.144c-0.076,0.934-0.023,1.877-0.023,2.815
		c-0.872,0.067-1.754,0.191-2.637,0.188c-0.695-0.004-1.138-0.463-1.166-1.161C118.558,55.538,118.588,54.42,118.588,53.257z"/>
	<path fill-rule="evenodd" clip-rule="evenodd" fill="#D8C663" d="M126.197,52.305c0.346,0.081,0.915,0.071,0.991,0.262
		c0.145,0.359,0.008,0.833-0.021,1.473c0.07,0.436,0.262,1.11,0.266,1.785c0.005,1.155-0.646,1.854-1.705,2.003
		c-1.124,0.157-1.935-0.349-2.285-1.443c-0.305-0.954-0.247-1.92,0.422-2.657c0.608-0.67,1.468-0.756,2.349-0.416
		c0.139,0.055,0.37-0.134,0.558-0.209c-0.174-0.189-0.347-0.379-0.521-0.567C126.232,52.459,126.214,52.382,126.197,52.305z
		 M124.343,55.407c0.004,0.997,0.444,1.627,1.1,1.549c0.841-0.102,0.909-0.818,0.955-1.443c0.055-0.771-0.515-1.498-1.082-1.443
		C124.468,54.148,124.378,54.799,124.343,55.407z"/>
	<path fill-rule="evenodd" clip-rule="evenodd" fill="#D8C663" d="M114.697,53.564c0.481-0.227,0.741-0.382,1.021-0.475
		c0.911-0.305,1.855,0.272,1.899,1.214c0.054,1.112,0.014,2.229,0.014,3.376c-0.312,0-0.6,0-0.926,0c0-0.83,0.006-1.614-0.002-2.398
		c-0.004-0.552-0.112-1.087-0.79-1.118c-0.632-0.029-1.019,0.327-1.072,0.986c-0.065,0.813-0.126,1.625-0.197,2.527
		c-0.263,0.019-0.544,0.038-0.958,0.068c0-1.924-0.014-3.767,0.021-5.608c0.005-0.162,0.325-0.443,0.495-0.441
		c0.167,0.002,0.438,0.275,0.473,0.465C114.75,52.562,114.697,52.984,114.697,53.564z"/>
	<path fill-rule="evenodd" clip-rule="evenodd" fill="#D8C663" d="M109.259,57.633c0-1.951,0-3.916,0-5.958
		c0.771,0,1.583-0.045,2.39,0.011c1.009,0.069,1.382,0.769,1.202,2.115c-0.105,0.808-0.987,1.582-1.692,1.417
		c-0.214-0.052-0.369-0.354-0.652-0.646c0.392-0.137,0.71-0.148,0.8-0.298c0.231-0.383,0.471-0.825,0.475-1.247
		c0.001-0.159-0.629-0.428-0.98-0.442c-0.172-0.009-0.517,0.441-0.523,0.692c-0.035,1.184-0.018,2.372,0.053,3.555
		C110.379,57.636,110.098,57.893,109.259,57.633z"/>
	<path fill-rule="evenodd" clip-rule="evenodd" fill="#D8C663" d="M148.183,57.823c-1.433-0.022-2.209-0.924-2.183-2.534
		c0.021-1.306,0.917-2.261,2.117-2.255c1.202,0.005,2.197,1.187,2.151,2.551C150.221,56.994,149.43,57.843,148.183,57.823z
		 M149.132,55.473c0.002-0.847-0.438-1.504-1.028-1.471c-0.862,0.049-0.965,0.734-1.011,1.374c-0.066,0.939,0.369,1.561,1.009,1.565
		C148.709,56.946,149.131,56.343,149.132,55.473z"/>
	<path fill-rule="evenodd" clip-rule="evenodd" fill="#D8C663" d="M132.182,57.677c-0.392,0-0.716,0-1.05,0
		c0-0.864,0.018-1.673-0.008-2.48c-0.016-0.512-0.176-1.098-0.783-0.997c-0.363,0.059-0.821,0.51-0.937,0.879
		c-0.175,0.56-0.136,1.204-0.101,1.806c0.044,0.783-0.264,0.991-1.019,0.729c0-1.441,0-2.885,0-4.326
		c0.131-0.045,0.229-0.119,0.293-0.096c0.694,0.26,1.33,0,2.001-0.141c0.767-0.161,1.547,0.468,1.589,1.258
		C132.225,55.395,132.182,56.487,132.182,57.677z"/>
	<path fill-rule="evenodd" clip-rule="evenodd" fill="#D8C663" d="M96.95,53.36c0.87-0.124,1.642-0.287,2.419-0.332
		c0.785-0.046,1.41,0.313,1.461,1.164c0.065,1.113,0.016,2.234,0.016,3.464c-0.26,0.019-0.568,0.042-0.929,0.067
		c0-0.858-0.001-1.636,0-2.414c0-0.61-0.18-1.146-0.886-1.125c-0.69,0.02-0.99,0.507-0.996,1.174
		c-0.004,0.517,0.006,1.034-0.001,1.551c-0.004,0.388,0.057,0.908-0.561,0.751c-0.221-0.058-0.489-0.468-0.501-0.728
		C96.919,55.725,96.95,54.511,96.95,53.36z"/>
	<path fill-rule="evenodd" clip-rule="evenodd" fill="#D8C663" d="M83.134,57.656c-0.287,0-0.568,0-0.919,0
		c0-0.814,0.001-1.567,0-2.32c-0.001-0.591-0.16-1.259-0.824-1.139c-0.413,0.074-0.877,0.678-1.035,1.141
		c-0.187,0.549-0.024,1.205-0.102,1.803c-0.026,0.208-0.315,0.381-0.485,0.569c-0.166-0.199-0.469-0.395-0.476-0.599
		c-0.044-1.269-0.022-2.54-0.022-3.83c0.183-0.045,0.315-0.123,0.403-0.09c0.658,0.254,1.24,0.09,1.892-0.124
		c0.76-0.248,1.493,0.294,1.548,1.105C83.193,55.312,83.134,56.459,83.134,57.656z"/>
	<path fill-rule="evenodd" clip-rule="evenodd" fill="#D8C663" d="M92.701,53.863c0.219-0.229,0.411-0.616,0.663-0.66
		c0.577-0.102,1.226-0.168,1.762,0.008c0.362,0.119,0.789,0.654,0.826,1.039c0.112,1.105,0.04,2.229,0.04,3.405
		c-0.337,0.02-0.596,0.034-0.952,0.056c-0.037-0.699-0.072-1.347-0.109-2.048c-0.728,0.009-1.392,0.08-1.477,0.873
		c-0.021,0.196,0.582,0.46,1.042,0.797c0.007-0.04,0.044,0.218-0.066,0.33c-0.341,0.35-1.414,0.163-1.837-0.277
		c-0.449-0.468-0.478-1.336,0.041-1.698c0.508-0.354,1.13-0.545,1.674-0.856c0.223-0.126,0.371-0.383,0.552-0.579
		c-0.256-0.146-0.508-0.397-0.772-0.414c-0.377-0.023-0.765,0.126-1.148,0.202C92.859,53.98,92.78,53.923,92.701,53.863z"/>
	<path fill-rule="evenodd" clip-rule="evenodd" fill="#D8C663" d="M76.86,57.381c-0.127,0.099-0.381,0.441-0.542,0.401
		c-0.516-0.128-1.157-0.269-1.456-0.64c-0.496-0.615-0.14-1.489,0.642-1.879c0.404-0.202,0.872-0.276,1.28-0.472
		c0.179-0.087,0.428-0.393,0.387-0.493c-0.083-0.203-0.34-0.469-0.529-0.471c-0.476-0.007-0.953,0.12-1.52,0.207
		c0-0.175-0.04-0.523,0.007-0.535c0.68-0.17,1.369-0.387,2.061-0.404c0.597-0.014,1.024,0.409,1.05,1.054
		c0.039,1.002,0.058,2.008,0.019,3.009c-0.008,0.194-0.326,0.377-0.5,0.565c-0.163-0.196-0.432-0.376-0.465-0.593
		c-0.071-0.468-0.021-0.955-0.021-1.491c-0.772,0.016-1.421,0.132-1.526,0.897C75.72,56.722,76.331,56.994,76.86,57.381z"/>
	<path fill-rule="evenodd" clip-rule="evenodd" fill="#D8C663" d="M75.463,52.077c0.306-0.135,0.613-0.38,0.917-0.376
		c0.374,0.004,0.747,0.212,1.121,0.333c-0.026,0.073-0.054,0.145-0.08,0.216c-0.623,0-1.245,0-1.867,0
		C75.524,52.192,75.494,52.135,75.463,52.077z"/>
	<path fill-rule="evenodd" clip-rule="evenodd" fill="#D8C663" d="M148.888,52.266c-0.574,0-1.148,0-1.94,0
		c0.3-0.25,0.529-0.6,0.752-0.594c0.435,0.011,0.863,0.219,1.294,0.348C148.958,52.102,148.923,52.183,148.888,52.266z"/>
	<path fill-rule="evenodd" clip-rule="evenodd" fill="#D8C663" d="M94.691,52.71c-0.555-0.331-0.952-0.568-1.349-0.808
		C94.007,51.648,94.618,51.477,94.691,52.71z"/>
</g>
</svg>
