<?xml version="1.0" encoding="utf-8"?>
<!-- Generator: Adobe Illustrator 16.0.0, SVG Export Plug-In . SVG Version: 6.00 Build 0)  -->
<!DOCTYPE svg PUBLIC "-//W3C//DTD SVG 1.0//EN" "http://www.w3.org/TR/2001/REC-SVG-20010904/DTD/svg10.dtd">
<svg version="1.0" id="Layer_1" xmlns="http://www.w3.org/2000/svg" xmlns:xlink="http://www.w3.org/1999/xlink" x="0px" y="0px"
	 width="150px" height="60px" viewBox="14 4 150 60" enable-background="new 14 4 150 60" xml:space="preserve">
<g>
	<path fill="#D9C36B" d="M92.038,41.338c-2.05,2-4.566,2.989-7.551,2.989c-3.321,0-5.905-1.313-7.712-3.958h-0.071v10.42H74.17
		V24.065h2.534v3.458h0.071c1.862-2.639,4.439-3.963,7.712-3.963c2.947,0,5.446,0.98,7.487,2.944
		c2.107,1.993,3.143,4.459,3.143,7.404C95.117,36.877,94.092,39.356,92.038,41.338 M90.3,28.167
		c-1.533-1.554-3.47-2.336-5.813-2.336c-2.226,0-4.101,0.816-5.653,2.419c-1.517,1.594-2.278,3.502-2.278,5.726
		c0,2.226,0.763,4.118,2.278,5.687c1.552,1.594,3.427,2.39,5.653,2.39c2.323,0,4.25-0.758,5.77-2.285
		c1.548-1.525,2.32-3.447,2.32-5.758C92.577,31.67,91.814,29.726,90.3,28.167z"/>
	<path fill="#D9C36B" d="M116.449,43.854v-3.484h-0.081c-1.737,2.645-4.304,3.958-7.703,3.958c-2.968,0-5.487-0.989-7.539-2.989
		c-2.061-1.981-3.087-4.46-3.087-7.429c0-2.945,1.046-5.411,3.121-7.404c2.063-1.964,4.565-2.944,7.507-2.944
		c3.454,0,6.024,1.324,7.704,3.963h0.078v-3.458h2.539v19.788H116.449 M114.325,28.251c-1.547-1.604-3.427-2.419-5.66-2.419
		c-2.334,0-4.271,0.782-5.809,2.337c-1.529,1.557-2.285,3.501-2.285,5.843c0,2.309,0.765,4.23,2.304,5.757
		c1.551,1.526,3.473,2.285,5.79,2.285c2.233,0,4.115-0.797,5.66-2.39c1.516-1.569,2.274-3.462,2.274-5.687
		C116.6,31.754,115.843,29.845,114.325,28.251z"/>
	<polyline fill="#D9C36B" points="138.568,24.543 132.053,38.462 125.535,24.543 122.811,24.543 131.854,44.327 132.247,44.327 
		141.289,24.543 138.568,24.543 	"/>
	<path fill="#D9C36B" d="M159.634,38.112c-0.552,1.089-1.379,1.995-2.478,2.697c-1.304,0.833-2.727,1.243-4.279,1.243
		c-1.947,0-3.695-0.715-5.219-2.122c-1.545-1.429-2.367-3.108-2.463-5.054h18.02l0.034-0.723c0-2.876-1.008-5.357-3.024-7.435
		c-2.025-2.11-4.472-3.159-7.348-3.159c-2.824,0-5.255,1.018-7.274,3.087c-1.994,2.052-3,4.497-3,7.33c0,2.846,1.006,5.283,3,7.298
		c2.02,2.032,4.462,3.053,7.316,3.053c2.172,0,4.161-0.641,5.956-1.923c1.218-0.873,2.175-1.934,2.904-3.171L159.634,38.112
		 M147.814,27.756c1.444-1.278,3.149-1.924,5.104-1.924c1.967,0,3.666,0.645,5.104,1.924c1.429,1.278,2.305,2.889,2.635,4.848
		h-15.462C145.515,30.645,146.387,29.033,147.814,27.756z"/>
	<path fill="#D9C36B" d="M41.131,61.076C26.174,61.076,14,48.905,14,33.943c0-14.96,12.173-27.129,27.131-27.129
		c14.957,0,27.128,12.168,27.128,27.129C68.258,48.905,56.087,61.076,41.131,61.076 M41.131,7.42
		c-14.625,0-26.526,11.902-26.526,26.523c0,14.616,11.9,26.516,26.526,26.516c14.63,0,26.521-11.899,26.521-26.516
		C67.651,19.322,55.759,7.42,41.131,7.42z"/>
	<path fill="#D9C36B" d="M67.09,43.854v-3.484h-0.069c-1.741,2.645-4.312,3.958-7.7,3.958c-2.981,0-5.489-0.989-7.549-2.989
		c-2.056-1.981-3.083-4.46-3.083-7.429c0-2.945,1.042-5.411,3.119-7.404c2.055-1.964,4.571-2.944,7.512-2.944
		c3.446,0,6.017,1.324,7.7,3.963h0.069v-3.458h2.544v19.788H67.09 M64.972,28.251c-1.536-1.604-3.425-2.419-5.651-2.419
		c-2.34,0-4.284,0.782-5.815,2.337c-1.523,1.557-2.291,3.501-2.291,5.843c0,2.309,0.768,4.23,2.312,5.757
		c1.545,1.526,3.479,2.285,5.794,2.285c2.226,0,4.115-0.797,5.651-2.39c1.52-1.569,2.281-3.462,2.281-5.687
		C67.252,31.754,66.491,29.845,64.972,28.251z"/>
</g>
</svg>
