<?xml version="1.0" encoding="utf-8"?>
<!-- Generator: Adobe Illustrator 16.0.0, SVG Export Plug-In . SVG Version: 6.00 Build 0)  -->
<!DOCTYPE svg PUBLIC "-//W3C//DTD SVG 1.0//EN" "http://www.w3.org/TR/2001/REC-SVG-20010904/DTD/svg10.dtd">
<svg version="1.0" id="Layer_1" xmlns="http://www.w3.org/2000/svg" xmlns:xlink="http://www.w3.org/1999/xlink" x="0px" y="0px"
	 width="120px" height="65px" viewBox="0 -2.5 120 65" enable-background="new 0 -2.5 120 65" xml:space="preserve">
<g>
	<path fill="#D9C36B" d="M61.418-1.437c0.295,0.027,0.592,0.06,0.889,0.08c2.698,0.186,5.327,0.721,7.885,1.603
		c4.37,1.506,8.232,3.858,11.566,7.064c3.778,3.632,6.488,7.94,8.129,12.919c0.655,1.992,1.092,4.032,1.337,6.116
		c0.194,1.646,0.26,3.298,0.182,4.951c-0.337,7.208-2.815,13.589-7.485,19.088c-3.821,4.498-8.564,7.659-14.172,9.51
		c-1.983,0.652-4.019,1.084-6.094,1.329c-1.648,0.194-3.3,0.259-4.954,0.184c-6.936-0.317-13.13-2.637-18.525-7.014
		c-4.787-3.884-8.136-8.781-10.073-14.637c-0.656-1.985-1.103-4.016-1.328-6.095c-0.076-0.708-0.118-1.418-0.179-2.127
		c-0.002-0.039-0.021-0.074-0.033-0.112c0-0.951,0-1.9,0-2.852c0.015-0.085,0.038-0.173,0.042-0.261
		c0.092-1.976,0.378-3.927,0.858-5.845c1.492-5.953,4.459-11.051,8.901-15.282c3.311-3.153,7.143-5.466,11.472-6.948
		c2.539-0.869,5.148-1.402,7.825-1.588c0.304-0.021,0.605-0.054,0.908-0.082C59.519-1.437,60.469-1.437,61.418-1.437z
		 M59.989,60.251c16.7-0.025,30.231-13.496,30.251-30.211c0.021-16.709-13.372-30.008-29.7-30.289
		C43.557-0.542,29.742,13.105,29.745,29.992C29.747,46.744,43.29,60.222,59.989,60.251z"/>
	<path fill="#D9C36B" d="M79.432,52.285c-0.032,0.002-0.05,0.01-0.059,0.004c-0.359-0.213-0.598-0.023-0.873,0.202
		c-3.66,3.011-7.808,5.015-12.443,6.005c-2.381,0.51-4.788,0.708-7.22,0.61c-4.037-0.161-7.883-1.114-11.522-2.875
		c-2.218-1.072-4.265-2.405-6.139-4.001c-0.143-0.123-0.262-0.143-0.426-0.075c-0.146,0.059-0.302,0.096-0.465,0.148
		c-0.153-0.376-0.289-0.74-0.449-1.095c-0.075-0.167-0.176-0.337-0.302-0.464C37.241,48.468,35.36,45.89,33.915,43
		c-1.358-2.72-2.265-5.586-2.722-8.595c-0.282-1.861-0.385-3.734-0.308-5.614c0.174-4.2,1.202-8.183,3.097-11.936
		c1.305-2.584,2.962-4.923,4.969-7.011c3.322-3.454,7.251-5.954,11.792-7.487c1.869-0.63,3.785-1.053,5.745-1.29
		c1.554-0.187,3.116-0.248,4.681-0.186c3.996,0.162,7.801,1.097,11.41,2.825c3.136,1.503,5.921,3.499,8.332,6.001
		c3.881,4.026,6.422,8.773,7.592,14.249c0.512,2.388,0.704,4.803,0.604,7.239c-0.173,4.207-1.204,8.193-3.104,11.952
		c-1.309,2.585-2.967,4.922-4.977,7.007c-0.354,0.366-0.727,0.715-1.083,1.078c-0.086,0.088-0.154,0.197-0.204,0.308
		C79.625,51.787,79.53,52.042,79.432,52.285z M65.36,39.908c0.126-0.345,0.249-0.691,0.383-1.034
		c0.176-0.462,0.271-0.934,0.283-1.429c0.02-0.813-0.158-1.595-0.404-2.361c-0.205-0.629-0.438-1.249-0.648-1.876
		c-0.129-0.385-0.035-0.739,0.223-0.932c0.263-0.201,0.675-0.215,0.981,0.011c0.187,0.136,0.339,0.327,0.478,0.514
		c0.212,0.284,0.39,0.591,0.603,0.875c0.053,0.071,0.194,0.146,0.259,0.124c0.082-0.032,0.167-0.157,0.178-0.251
		c0.035-0.253,0.07-0.519,0.034-0.77c-0.126-0.848-0.291-1.69-0.42-2.539c-0.101-0.654-0.264-1.31-0.141-1.974
		c0.069-0.37,0.188-0.745,0.357-1.08c0.19-0.378,0.516-0.391,0.824-0.092c0.07,0.066,0.135,0.14,0.195,0.217
		c0.231,0.298,0.455,0.602,0.69,0.896c0.133,0.169,0.268,0.339,0.421,0.493c0.136,0.137,0.24,0.119,0.326-0.056
		c0.055-0.109,0.092-0.236,0.096-0.357c0.004-0.2-0.004-0.408-0.05-0.603c-0.154-0.656-0.332-1.308-0.495-1.962
		c-0.104-0.419-0.235-0.836-0.15-1.277c0.118-0.611,0.651-0.996,1.185-0.81c0.2,0.071,0.375,0.252,0.532,0.413
		c0.145,0.148,0.243,0.341,0.375,0.501c0.123,0.144,0.248,0.116,0.314-0.06c0.021-0.051,0.033-0.108,0.034-0.161
		c0.013-0.412,0.007-0.825,0.035-1.236c0.031-0.454,0.121-0.897,0.572-1.143c0.572-0.312,1.337-0.234,1.817,0.208
		c0.561,0.516,0.819,1.165,0.773,1.932c-0.02,0.305-0.063,0.614-0.027,0.914c0.04,0.338,0.201,0.417,0.53,0.347
		c0.074-0.018,0.149-0.037,0.223-0.051c0.454-0.088,0.795,0.144,0.847,0.601c0.072,0.643-0.072,1.248-0.377,1.814
		c-0.323,0.604-0.792,1.093-1.27,1.573c-0.254,0.257-0.492,0.535-0.707,0.827c-0.159,0.215-0.108,0.357,0.119,0.504
		c0.196,0.127,0.409,0.131,0.622,0.054c0.293-0.108,0.579-0.244,0.876-0.338c0.393-0.13,0.664-0.013,0.853,0.354
		c0.335,0.651,0.296,1.277-0.141,1.869c-0.318,0.43-0.733,0.754-1.199,0.998c-0.501,0.257-1.021,0.479-1.537,0.709
		c-0.335,0.146-0.625,0.342-0.806,0.668c-0.119,0.211-0.034,0.354,0.206,0.37c0.062,0.006,0.127,0,0.186-0.013
		c0.232-0.052,0.462-0.113,0.691-0.165c0.982-0.22,1.525,0.616,1.318,1.392c-0.106,0.401-0.323,0.741-0.6,1.042
		c-1.095,1.201-2.438,2.024-4.017,2.403c-1.474,0.353-2.922,0.779-4.325,1.35c-0.089,0.033-0.177,0.077-0.316,0.142
		c0.784,0.086,1.499,0.154,2.211,0.244c1.861,0.236,3.71,0.55,5.541,0.961c0.125,0.027,0.204,0.018,0.286-0.087
		c0.159-0.203,0.338-0.391,0.499-0.594c3.558-4.502,4.914-9.592,3.968-15.25c-0.691-4.155-2.607-7.705-5.704-10.556
		c-4.642-4.276-10.135-5.891-16.352-4.845c-4.106,0.691-7.616,2.612-10.441,5.671c-4.219,4.57-5.841,9.982-4.902,16.122
		c0.543,3.554,2.085,6.675,4.442,9.389c0.093,0.107,0.177,0.126,0.307,0.097c0.428-0.094,0.856-0.2,1.29-0.268
		c1.75-0.266,3.501-0.524,5.254-0.779c0.414-0.059,0.832-0.088,1.299-0.138c-0.083-0.04-0.112-0.057-0.143-0.069
		c-1.208-0.497-2.433-0.948-3.713-1.209c-1.679-0.339-3.153-1.054-4.398-2.228c-0.425-0.401-0.791-0.849-0.942-1.434
		c-0.184-0.716,0.334-1.508,1.176-1.379c0.165,0.027,0.324,0.075,0.49,0.109c0.169,0.035,0.34,0.083,0.512,0.09
		c0.265,0.008,0.356-0.152,0.227-0.381c-0.058-0.102-0.126-0.215-0.22-0.273c-0.288-0.18-0.576-0.363-0.885-0.497
		c-0.815-0.345-1.609-0.713-2.236-1.362c-0.584-0.604-0.712-1.348-0.353-2.057c0.21-0.417,0.487-0.537,0.929-0.382
		c0.21,0.071,0.408,0.182,0.619,0.252c0.169,0.057,0.357,0.13,0.523,0.104c0.169-0.026,0.356-0.134,0.468-0.265
		c0.119-0.136-0.02-0.301-0.106-0.433c-0.059-0.087-0.125-0.169-0.195-0.244c-0.255-0.27-0.53-0.521-0.767-0.802
		c-0.322-0.384-0.648-0.771-0.916-1.192c-0.355-0.561-0.485-1.199-0.416-1.864c0.046-0.448,0.38-0.686,0.823-0.605
		c0.102,0.019,0.205,0.045,0.307,0.065c0.236,0.049,0.4-0.023,0.446-0.255c0.043-0.213,0.062-0.446,0.029-0.66
		c-0.113-0.734,0.016-1.404,0.466-2c0.452-0.601,1.095-0.806,1.82-0.606c0.401,0.111,0.676,0.355,0.755,0.757
		c0.066,0.352,0.08,0.717,0.105,1.076c0.019,0.244,0.006,0.489,0.034,0.731c0.008,0.081,0.085,0.187,0.158,0.217
		c0.047,0.021,0.161-0.057,0.212-0.119c0.135-0.161,0.234-0.353,0.378-0.501c0.142-0.146,0.307-0.304,0.491-0.367
		c0.529-0.178,1.05,0.184,1.183,0.786c0.101,0.448-0.032,0.875-0.147,1.297c-0.215,0.793-0.513,1.566-0.542,2.4
		c-0.005,0.175,0.029,0.361,0.093,0.523c0.069,0.178,0.185,0.191,0.327,0.062c0.104-0.094,0.193-0.203,0.279-0.312
		c0.318-0.405,0.619-0.826,0.956-1.22c0.36-0.422,0.711-0.376,0.965,0.116c0.277,0.535,0.391,1.11,0.307,1.705
		c-0.165,1.172-0.369,2.341-0.536,3.515c-0.045,0.319-0.036,0.651-0.019,0.976c0.006,0.11,0.099,0.288,0.186,0.307
		c0.089,0.023,0.229-0.092,0.323-0.173c0.093-0.08,0.163-0.19,0.229-0.297c0.113-0.182,0.216-0.374,0.324-0.561
		c0.173-0.294,0.409-0.512,0.745-0.604c0.584-0.156,1.06,0.27,0.963,0.867c-0.018,0.11-0.052,0.218-0.086,0.322
		c-0.274,0.848-0.58,1.689-0.817,2.546c-0.297,1.076-0.281,2.15,0.174,3.197c0.117,0.265,0.201,0.545,0.3,0.816
		c-0.022,0.021-0.043,0.038-0.066,0.057c-0.279-0.297-0.556-0.598-0.835-0.896c-3.012-3.211-5.049-6.974-6.313-11.173
		c-0.088-0.292-0.152-0.595-0.247-0.886c-0.024-0.076-0.126-0.127-0.191-0.19c-0.036,0.083-0.099,0.164-0.1,0.249
		c-0.002,0.121,0.034,0.249,0.063,0.37c0.511,2.235,1.323,4.358,2.376,6.388c1.454,2.807,3.324,5.29,5.696,7.386
		c0.069,0.063,0.183,0.104,0.274,0.101c1.053-0.031,2.107-0.073,3.16-0.113c0.191-0.006,0.382,0,0.595,0
		c-0.112-0.353-0.295-0.585-0.569-0.771c-0.784-0.533-1.573-1.06-2.327-1.634c-0.529-0.401-0.985-0.891-1.264-1.513
		c-0.323-0.725-0.086-1.348,0.64-1.672c0.15-0.07,0.323-0.09,0.472-0.16c0.211-0.099,0.445-0.188,0.611-0.341
		c0.78-0.725,0.656-1.924-0.276-2.455c-0.968-0.552-1.67-1.341-2.195-2.303c-0.433-0.79-0.743-1.622-0.729-2.544
		c0.001-0.111,0.003-0.224,0.023-0.333c0.131-0.781,0.679-1.15,1.481-0.976c0.43,0.092,0.845,0.24,1.272,0.334
		c0.476,0.105,0.693-0.112,0.629-0.593c-0.006-0.042-0.011-0.086-0.028-0.121c-0.245-0.546-0.462-1.105-0.744-1.631
		c-0.613-1.149-1.09-2.337-1.176-3.653c-0.032-0.477-0.001-0.95,0.221-1.388c0.208-0.414,0.579-0.591,1.011-0.434
		c0.283,0.103,0.542,0.279,0.797,0.443c0.3,0.19,0.57,0.429,0.879,0.599c0.316,0.173,0.556,0.032,0.585-0.331
		c0.021-0.262,0.019-0.532-0.02-0.792c-0.11-0.771-0.183-1.541-0.138-2.318c0.038-0.659,0.144-1.305,0.536-1.865
		c0.538-0.768,1.543-0.876,2.197-0.237c0.294,0.286,0.463,0.645,0.569,1.034c0.247,0.914,0.201,1.839,0.107,2.766
		c-0.044,0.436-0.104,0.874-0.104,1.312c0,0.482,0.272,0.627,0.69,0.384c0.282-0.164,0.526-0.39,0.8-0.567
		c0.244-0.158,0.493-0.325,0.763-0.423c0.445-0.162,0.842-0.002,1.02,0.436c0.13,0.322,0.215,0.683,0.224,1.03
		c0.037,1.161-0.317,2.243-0.809,3.277c-0.27,0.566-0.594,1.107-0.857,1.676c-0.137,0.292-0.227,0.615-0.282,0.933
		c-0.056,0.316,0.126,0.49,0.448,0.48c0.138-0.003,0.276-0.032,0.41-0.068c0.352-0.092,0.695-0.211,1.048-0.285
		c0.803-0.17,1.377,0.206,1.477,0.977c0.038,0.301,0.034,0.618-0.012,0.915c-0.176,1.13-0.677,2.118-1.39,3.002
		c-0.396,0.493-0.868,0.904-1.427,1.214c-0.493,0.275-0.805,0.682-0.849,1.262c-0.048,0.66,0.418,1.448,1.233,1.623
		c1.073,0.232,1.424,1.083,0.871,2.033c-0.306,0.528-0.721,0.968-1.204,1.327c-0.742,0.554-1.515,1.071-2.281,1.587
		c-0.275,0.187-0.447,0.425-0.547,0.74c0.063,0.008,0.105,0.017,0.147,0.019c1.197,0.05,2.396,0.104,3.596,0.148
		c0.08,0.004,0.179-0.04,0.236-0.096c0.504-0.473,1.021-0.935,1.496-1.436c3.154-3.341,5.252-7.271,6.458-11.691
		c0.097-0.357,0.169-0.721,0.235-1.083c0.013-0.068-0.063-0.15-0.097-0.225c-0.072,0.052-0.162,0.09-0.213,0.157
		c-0.043,0.058-0.042,0.146-0.062,0.22c-0.99,3.697-2.629,7.074-4.969,10.109C67.06,38.237,66.263,39.114,65.36,39.908z
		 M81.538,45.646c-0.095-0.046-0.163-0.08-0.232-0.111c-3.098-1.35-6.347-2.183-9.656-2.797c-1.757-0.328-3.523-0.581-5.305-0.724
		c-1.432-0.112-2.866-0.226-4.302-0.261c-1.568-0.042-3.141-0.033-4.709,0.017c-1.429,0.044-2.857,0.146-4.282,0.271
		c-1.834,0.161-3.655,0.433-5.462,0.781c-2.734,0.526-5.422,1.229-8.025,2.229c-0.467,0.18-0.922,0.38-1.4,0.579
		c0.817,2.024,1.62,4.02,2.424,6.017c12.856-4.078,25.689-4.078,38.534,0C79.929,49.64,80.729,47.65,81.538,45.646z M48.34,6.419
		c0.567,1.335,1.114,2.621,1.669,3.923c0.457-0.194,0.898-0.378,1.337-0.572c0.221-0.097,0.45-0.194,0.65-0.328
		c0.449-0.306,0.659-0.731,0.533-1.281c-0.123-0.536-0.416-0.906-0.985-0.979c0.049-0.169,0.147-0.336,0.138-0.495
		c-0.037-0.595-0.563-1.259-1.317-1.041C49.683,5.845,49.029,6.152,48.34,6.419z M86.267,27.813
		c-1.453,0.032-2.852,0.062-4.244,0.092c0,0.287,0,0.547,0,0.804c0.871,0,1.722,0,2.609,0c-0.097,0.063-0.158,0.108-0.222,0.15
		c-0.737,0.491-1.476,0.98-2.212,1.473c-0.055,0.036-0.136,0.09-0.138,0.14c-0.017,0.231-0.007,0.466-0.007,0.712
		c1.452-0.029,2.846-0.059,4.237-0.084c0-0.285,0-0.547,0-0.801c-0.872,0-1.724,0-2.599,0c0.05-0.036,0.087-0.063,0.126-0.09
		c0.771-0.501,1.543-1.005,2.312-1.512c0.06-0.04,0.125-0.119,0.132-0.185C86.277,28.296,86.267,28.071,86.267,27.813z M72.414,9.88
		c-0.016-0.363-0.031-0.673-0.045-0.983c-0.021-0.626-0.042-1.255-0.07-1.881c-0.004-0.096-0.023-0.229-0.09-0.277
		c-0.188-0.138-0.4-0.242-0.62-0.365c-0.704,1.235-1.396,2.45-2.1,3.683c0.248,0.141,0.479,0.272,0.721,0.409
		c0.435-0.758,0.855-1.498,1.307-2.289c0.014,0.177,0.026,0.287,0.03,0.398c0.044,0.855,0.084,1.713,0.13,2.569
		c0.002,0.068,0.029,0.164,0.079,0.197c0.185,0.122,0.382,0.225,0.587,0.34c0.7-1.23,1.394-2.445,2.098-3.682
		c-0.243-0.14-0.475-0.271-0.717-0.411C73.285,8.354,72.862,9.095,72.414,9.88z M44.24,9.019c0.548,0.683,1.08,1.346,1.652,2.059
		c-0.127-0.043-0.2-0.065-0.268-0.09c-0.834-0.292-1.668-0.586-2.503-0.874c-0.071-0.023-0.176-0.04-0.227-0.004
		c-0.195,0.134-0.372,0.29-0.568,0.446c0.891,1.107,1.766,2.198,2.654,3.306c0.224-0.18,0.431-0.348,0.645-0.519
		c-0.551-0.688-1.084-1.354-1.649-2.06c0.111,0.033,0.172,0.045,0.229,0.065c0.855,0.292,1.712,0.587,2.571,0.875
		c0.069,0.024,0.177,0.039,0.229,0.002c0.182-0.123,0.349-0.271,0.535-0.42c-0.891-1.109-1.769-2.201-2.654-3.304
		C44.668,8.674,44.463,8.839,44.24,9.019z M60.315,41.177c0.004-0.071,0.01-0.132,0.011-0.192c0.012-0.823,0.028-1.648,0.032-2.472
		c0.007-2.52,0.021-5.039,0.012-7.561c-0.01-2.218-0.045-4.436-0.071-6.655c-0.005-0.572-0.009-1.146-0.031-1.716
		c-0.004-0.097-0.098-0.267-0.158-0.271c-0.154-0.011-0.176,0.143-0.187,0.271c-0.002,0.021,0,0.042-0.001,0.064
		c-0.015,0.625-0.033,1.253-0.04,1.883c-0.025,2.044-0.057,4.087-0.065,6.132c-0.01,2.055,0.001,4.106,0.009,6.158
		c0.006,1.034,0.022,2.068,0.03,3.099c0.004,0.417,0,0.833,0,1.26C60.03,41.177,60.166,41.177,60.315,41.177z M63.6,56.525
		c0.537-0.11,1.036-0.206,1.531-0.319c0.251-0.057,0.507-0.115,0.737-0.222c0.454-0.206,0.684-0.58,0.673-1.086
		c-0.008-0.499-0.203-0.873-0.708-1.034c0.007-0.021,0.009-0.035,0.017-0.048c0.282-0.343,0.28-0.719,0.091-1.097
		c-0.19-0.379-0.529-0.548-0.934-0.508c-0.456,0.044-0.908,0.14-1.359,0.224c-0.284,0.052-0.564,0.118-0.856,0.182
		C63.065,53.936,63.33,55.222,63.6,56.525z M37.667,22.443c0.073-0.2,0.127-0.379,0.206-0.549c0.023-0.055,0.104-0.104,0.165-0.112
		c0.49-0.062,0.982-0.111,1.474-0.17c0.061-0.007,0.152-0.036,0.172-0.08c0.111-0.267,0.206-0.541,0.318-0.841
		c-0.631,0.065-1.229,0.128-1.839,0.192c-0.026-0.138-0.043-0.262-0.077-0.381c-0.155-0.52-0.65-0.87-1.294-0.923
		c-0.469-0.039-0.936,0.268-1.182,0.781c-0.048,0.099-0.089,0.205-0.126,0.309c-0.18,0.476-0.356,0.952-0.534,1.428
		c-0.023,0.062-0.042,0.126-0.064,0.198c1.328,0.497,2.635,0.987,3.962,1.483c0.102-0.271,0.195-0.52,0.292-0.78
		C38.64,22.811,38.167,22.632,37.667,22.443z M63.66,8.27c0.601,0.109,1.177,0.27,1.76,0.308c0.792,0.05,1.382-0.339,1.726-1.057
		c0.114-0.243,0.194-0.509,0.248-0.772c0.178-0.842-0.11-1.597-0.765-2.021c-0.595-0.386-1.303-0.414-1.972-0.62
		C64.325,5.497,64.001,6.849,63.66,8.27z M81.92,22.254c0.682-0.041,1.388-0.334,1.937-0.946c0.438-0.489,0.57-1.065,0.353-1.693
		c-0.223-0.634-0.661-1.053-1.337-1.15c-0.914-0.131-1.688,0.196-2.337,0.823c-0.546,0.525-0.676,1.23-0.396,1.899
		C80.425,21.87,81.021,22.257,81.92,22.254z M37.042,25.261c0.269,0.032,0.472,0.211,0.524,0.467c0.11,0.517-0.175,0.976-0.7,1.085
		c-0.533,0.111-1.042,0.015-1.512-0.255c-0.301-0.173-0.454-0.439-0.433-0.8c0.021-0.356,0.178-0.607,0.513-0.741
		c0.044-0.017,0.084-0.044,0.136-0.071c-0.11-0.264-0.215-0.518-0.322-0.777c-0.441,0.134-0.764,0.379-0.969,0.771
		c-0.442,0.846-0.203,1.799,0.596,2.318c0.615,0.401,1.304,0.532,2.021,0.417c1.11-0.178,1.764-1.179,1.472-2.208
		c-0.213-0.745-1.152-1.308-2.004-1.195c-0.081,0.475-0.161,0.953-0.244,1.448c0.282,0.046,0.539,0.089,0.807,0.134
		C36.971,25.64,37.006,25.45,37.042,25.261z M77.773,11.77c0.383-1.11-0.784-2.298-1.924-2.083
		c-0.995,0.188-1.958,1.242-2.062,2.253c-0.118,1.142,0.999,2.129,2.069,1.827c0.581-0.165,0.922-0.62,1.291-1.073
		c-0.38-0.325-0.754-0.646-1.139-0.977c-0.182,0.213-0.354,0.412-0.53,0.62c0.16,0.144,0.311,0.278,0.459,0.41
		c-0.238,0.251-0.489,0.3-0.783,0.157c-0.354-0.171-0.587-0.535-0.52-0.876c0.14-0.692,0.557-1.177,1.192-1.461
		c0.547-0.245,1.236,0.304,1.143,0.828c-0.014,0.074-0.01,0.151-0.014,0.247C77.236,11.687,77.508,11.728,77.773,11.77z
		 M43.724,13.941c-0.455,0.528-0.897,1.039-1.345,1.559c-0.259-0.224-0.505-0.438-0.763-0.661c0.253-0.296,0.495-0.581,0.743-0.872
		c-0.215-0.185-0.416-0.355-0.624-0.535c-0.257,0.293-0.501,0.574-0.754,0.862c-0.196-0.17-0.374-0.324-0.556-0.48
		c0.436-0.508,0.854-0.999,1.285-1.498c-0.22-0.188-0.42-0.358-0.629-0.537c-0.621,0.721-1.225,1.423-1.837,2.136
		c1.077,0.928,2.139,1.842,3.212,2.766c0.636-0.739,1.262-1.466,1.895-2.201C44.132,14.292,43.938,14.124,43.724,13.941z
		 M36.801,17.692c1.217,0.73,2.42,1.453,3.636,2.182c0.503-0.84,0.993-1.657,1.492-2.494c-0.242-0.146-0.471-0.282-0.709-0.423
		c-0.359,0.599-0.708,1.178-1.061,1.763c-0.294-0.176-0.576-0.345-0.866-0.52c0.195-0.33,0.384-0.65,0.585-0.986
		c-0.239-0.143-0.466-0.277-0.708-0.423c-0.197,0.327-0.392,0.646-0.591,0.979c-0.22-0.132-0.425-0.254-0.632-0.38
		c0.345-0.577,0.674-1.126,1.012-1.692c-0.24-0.144-0.468-0.281-0.709-0.426C37.762,16.087,37.287,16.881,36.801,17.692z
		 M85.33,22.78c-0.04,0-0.067-0.005-0.092,0.001c-0.863,0.192-1.731,0.373-2.588,0.584c-0.454,0.112-0.841,0.36-1.063,0.789
		c-0.324,0.63-0.194,1.245,0.175,1.803c0.377,0.57,0.968,0.679,1.595,0.576c0.604-0.098,1.201-0.25,1.8-0.378
		c0.287-0.063,0.577-0.128,0.872-0.194c-0.067-0.295-0.126-0.556-0.188-0.82c-0.107,0.022-0.189,0.04-0.271,0.057
		c-0.79,0.17-1.579,0.352-2.372,0.503c-0.468,0.088-0.774-0.125-0.888-0.557c-0.114-0.441,0.045-0.753,0.484-0.933
		c0.09-0.037,0.184-0.065,0.278-0.088c0.435-0.098,0.87-0.193,1.306-0.29c0.372-0.082,0.742-0.166,1.124-0.25
		C85.442,23.3,85.386,23.043,85.33,22.78z M53.748,4.499c-0.292,0.063-0.548,0.119-0.816,0.176c0.006,0.05,0.008,0.085,0.016,0.117
		c0.183,0.844,0.357,1.689,0.554,2.531c0.083,0.364,0.263,0.69,0.556,0.938c0.484,0.411,1.25,0.446,1.889,0.096
		c0.555-0.303,0.859-0.906,0.753-1.576c-0.088-0.563-0.217-1.121-0.331-1.679c-0.075-0.366-0.157-0.731-0.238-1.112
		c-0.29,0.063-0.551,0.12-0.828,0.179c0.122,0.568,0.245,1.109,0.351,1.655c0.08,0.402,0.166,0.805,0.192,1.213
		c0.024,0.357-0.187,0.572-0.544,0.665c-0.385,0.098-0.663,0.002-0.847-0.311c-0.07-0.118-0.125-0.25-0.158-0.384
		c-0.093-0.378-0.17-0.76-0.251-1.141C53.946,5.416,53.85,4.969,53.748,4.499z M35.164,38.478c0.314-0.119,0.601-0.229,0.888-0.333
		c0.569-0.204,1.132-0.433,1.712-0.602c0.456-0.136,0.741,0.036,0.903,0.445c0.163,0.418,0.052,0.731-0.352,0.97
		c-0.12,0.072-0.25,0.127-0.379,0.177c-0.48,0.185-0.965,0.364-1.446,0.546c-0.253,0.094-0.504,0.189-0.769,0.29
		c0.103,0.271,0.196,0.521,0.29,0.767c0.034,0,0.048,0.005,0.06,0c0.556-0.207,1.111-0.407,1.664-0.624
		c0.35-0.134,0.709-0.26,1.036-0.439c0.705-0.389,0.967-1.025,0.769-1.761c-0.24-0.891-0.862-1.344-1.738-1.249
		c-0.205,0.022-0.41,0.083-0.604,0.154c-0.727,0.263-1.45,0.537-2.174,0.811c-0.048,0.019-0.094,0.048-0.148,0.077
		C34.971,37.965,35.063,38.21,35.164,38.478z M37.66,34.413c0.601-0.562,0.767-1.454,0.442-2.276
		c-0.265-0.669-0.885-0.976-1.58-0.773c-0.5,0.144-0.713,0.528-0.833,0.988c-0.09,0.349-0.145,0.708-0.249,1.055
		c-0.029,0.106-0.158,0.24-0.256,0.253c-0.163,0.023-0.343-0.048-0.38-0.248c-0.035-0.185-0.083-0.379-0.048-0.557
		c0.046-0.229,0.167-0.444,0.264-0.683c-0.19-0.148-0.404-0.31-0.617-0.47c-0.625,0.646-0.681,1.752-0.133,2.41
		c0.29,0.348,0.671,0.46,1.108,0.399c0.441-0.063,0.738-0.308,0.883-0.731c0.039-0.11,0.068-0.228,0.096-0.34
		c0.079-0.341,0.145-0.684,0.234-1.02c0.045-0.17,0.168-0.264,0.357-0.26c0.184,0.004,0.306,0.092,0.368,0.257
		c0.043,0.117,0.073,0.24,0.089,0.364c0.057,0.428-0.1,0.791-0.385,1.113C37.239,34.075,37.444,34.24,37.66,34.413z M61.592,53.699
		c-0.244-0.579-0.652-0.919-1.267-0.976c-0.649-0.061-1.207,0.127-1.599,0.673c-0.443,0.612-0.492,1.306-0.333,2.018
		c0.221,0.995,0.934,1.5,1.941,1.402c0.625-0.061,1.136-0.466,1.271-1.074c0.075-0.341,0.062-0.7,0.09-1.053
		c-0.519,0-0.99,0-1.447,0c0,0.263,0,0.506,0,0.756c0.215,0,0.408,0,0.607,0c-0.021,0.247-0.131,0.418-0.349,0.515
		c-0.446,0.2-0.945,0.035-1.165-0.399c-0.246-0.486-0.256-0.996-0.052-1.498c0.132-0.321,0.381-0.512,0.737-0.535
		c0.321-0.022,0.571,0.107,0.729,0.389c0.054,0.099,0.106,0.104,0.201,0.061C61.157,53.881,61.365,53.8,61.592,53.699z
		 M53.738,55.496c0.064,0.103,0.109,0.196,0.176,0.275c0.494,0.594,1.156,0.788,1.893,0.726c0.651-0.055,0.996-0.392,1.113-1.003
		c0.105-0.542-0.112-0.947-0.677-1.258c-0.091-0.055-0.186-0.095-0.281-0.138c-0.21-0.099-0.422-0.188-0.626-0.291
		c-0.148-0.075-0.283-0.178-0.231-0.374c0.052-0.202,0.217-0.257,0.405-0.259c0.069,0,0.139,0.008,0.207,0.021
		c0.351,0.053,0.603,0.268,0.816,0.548c0.229-0.159,0.446-0.308,0.66-0.456c-0.426-0.706-1.336-1.063-2.102-0.84
		c-0.464,0.136-0.759,0.431-0.833,0.918c-0.08,0.516,0.09,0.846,0.567,1.124c0.157,0.09,0.326,0.158,0.489,0.237
		c0.182,0.088,0.368,0.168,0.543,0.268c0.154,0.084,0.263,0.205,0.216,0.407c-0.048,0.209-0.192,0.306-0.392,0.312
		c-0.452,0.013-0.854-0.112-1.152-0.477c-0.042-0.052-0.086-0.104-0.131-0.156C54.173,55.22,53.962,55.355,53.738,55.496z
		 M52.449,51.649c-0.034,0.086-0.061,0.154-0.088,0.226c-0.223,0.6-0.442,1.204-0.667,1.801c-0.051,0.139-0.11,0.274-0.188,0.397
		c-0.241,0.374-0.6,0.493-0.973,0.343c-0.358-0.146-0.55-0.515-0.439-0.935c0.11-0.407,0.267-0.804,0.408-1.205
		c0.139-0.391,0.286-0.779,0.435-1.183c-0.267-0.098-0.513-0.188-0.769-0.282c-0.289,0.792-0.602,1.546-0.838,2.323
		c-0.391,1.283,0.585,2.378,1.87,2.134c0.515-0.099,0.875-0.425,1.071-0.887c0.342-0.798,0.633-1.614,0.954-2.446
		C52.953,51.836,52.708,51.746,52.449,51.649z M79.923,17.762c-0.069-0.003-0.11-0.008-0.152-0.006
		c-0.389,0.008-0.67-0.167-0.838-0.515c-0.161-0.336-0.101-0.655,0.123-0.939c0.307-0.39,0.701-0.665,1.181-0.788
		c0.334-0.088,0.653-0.042,0.898,0.242c0.244,0.281,0.299,0.589,0.14,0.932c-0.017,0.035-0.022,0.075-0.038,0.127
		c0.261,0.115,0.513,0.226,0.768,0.337c0.335-0.577,0.305-1.124-0.025-1.661c-0.357-0.584-0.877-0.915-1.564-0.858
		c-0.984,0.082-1.738,0.586-2.217,1.447c-0.478,0.863-0.086,1.956,0.808,2.373c0.291,0.136,0.594,0.178,0.918,0.126
		C79.923,18.305,79.923,18.043,79.923,17.762z M84.806,35.935c0.184-0.096,0.358-0.163,0.508-0.27
		c0.923-0.656,0.886-2.123-0.078-2.8c-0.576-0.407-1.231-0.532-1.928-0.482c-1.036,0.073-1.751,0.875-1.687,1.909
		c0.034,0.508,0.268,0.909,0.687,1.21c0.195-0.202,0.377-0.395,0.588-0.618c-0.065-0.048-0.129-0.082-0.175-0.132
		c-0.472-0.486-0.28-1.278,0.371-1.454c0.604-0.161,1.181-0.05,1.698,0.295c0.521,0.349,0.431,1.23-0.142,1.447
		c-0.057,0.021-0.11,0.053-0.175,0.086C84.583,35.39,84.688,35.644,84.806,35.935z M70.962,53.388
		c-0.263-0.039-0.514-0.075-0.769-0.112c-0.017,0.05-0.031,0.083-0.038,0.116c-0.064,0.368-0.277,0.604-0.642,0.686
		c-0.356,0.082-0.643-0.066-0.873-0.328c-0.292-0.332-0.442-0.725-0.467-1.161c-0.023-0.445,0.233-0.786,0.655-0.907
		c0.264-0.073,0.493,0,0.715,0.167c0.189-0.204,0.373-0.398,0.578-0.622c-0.042-0.021-0.067-0.033-0.09-0.05
		c-0.875-0.717-2.287-0.247-2.611,0.868c-0.262,0.905,0.213,2.145,1.018,2.644C69.475,55.333,70.896,54.62,70.962,53.388z
		 M60.245,3.721c-0.081,1.425-0.16,2.82-0.241,4.239c0.958,0.054,1.892,0.108,2.833,0.161c0.017-0.297,0.034-0.558,0.051-0.834
		c-0.673-0.041-1.323-0.081-1.985-0.121c0.063-1.153,0.126-2.269,0.188-3.394C60.795,3.753,60.534,3.738,60.245,3.721z
		 M84.427,39.814c-1.286-0.594-2.562-1.181-3.853-1.776c-0.398,0.869-0.791,1.718-1.188,2.576c0.268,0.121,0.505,0.232,0.759,0.349
		c0.282-0.609,0.557-1.199,0.838-1.807c1.034,0.479,2.049,0.948,3.088,1.425C84.189,40.322,84.303,40.079,84.427,39.814z
		 M57.8,3.843c0.097,1.419,0.191,2.815,0.287,4.23c0.263-0.015,0.506-0.022,0.746-0.051c0.037-0.004,0.092-0.11,0.089-0.165
		c-0.06-0.982-0.128-1.963-0.195-2.945C58.7,4.545,58.671,4.179,58.642,3.79C58.363,3.809,58.101,3.826,57.8,3.843z M84.966,38.258
		c0.084-0.273,0.165-0.537,0.249-0.811c-1.358-0.425-2.69-0.842-4.047-1.265c-0.084,0.274-0.164,0.535-0.247,0.809
		C82.279,37.416,83.61,37.834,84.966,38.258z M69.226,5.409c-0.518,1.323-1.029,2.629-1.546,3.946
		c0.278,0.109,0.526,0.204,0.788,0.306c0.521-1.327,1.03-2.628,1.546-3.946C69.746,5.612,69.495,5.514,69.226,5.409z M38.077,30.22
		c0.004-0.309-0.249-0.579-0.557-0.587c-0.313-0.01-0.589,0.263-0.589,0.579c0,0.309,0.26,0.575,0.568,0.577
		C37.803,30.79,38.074,30.526,38.077,30.22z M38.192,36.112c0.309,0,0.564-0.26,0.566-0.575c0.001-0.311-0.256-0.574-0.565-0.58
		c-0.308-0.005-0.584,0.273-0.582,0.589C37.614,35.851,37.879,36.11,38.192,36.112z"/>
	<path fill="#D9C36B" d="M70.409,47.705c0.209-1.04,0.413-2.054,0.63-3.128c0.527,0.146,1.058,0.245,1.545,0.445
		c0.512,0.209,0.739,0.731,0.68,1.322c-0.015,0.141-0.037,0.276-0.07,0.412c-0.184,0.76-0.765,1.212-1.543,1.157
		C71.243,47.883,70.842,47.78,70.409,47.705z M71.148,47.206c0.4,0.11,0.789,0.2,1.134-0.103c0.284-0.251,0.427-0.842,0.28-1.201
		c-0.186-0.462-0.62-0.473-1.032-0.563C71.401,45.969,71.277,46.579,71.148,47.206z"/>
	<path fill="#D9C36B" d="M56.332,43.658c0.417,0,0.836-0.019,1.251,0.007c0.806,0.043,1.283,0.589,1.318,1.464
		c0.038,0.995-0.571,1.643-1.567,1.672c-0.25,0.006-0.502,0.017-0.752,0.029c-0.105,0.008-0.176-0.015-0.18-0.143
		c-0.03-0.979-0.063-1.962-0.093-2.943c0-0.007,0.006-0.013,0.008-0.019C56.323,43.702,56.328,43.684,56.332,43.658z M56.966,44.302
		c-0.008,0.021-0.017,0.035-0.016,0.046c0.018,0.489,0.036,0.976,0.056,1.465c0.019,0.401,0.02,0.401,0.432,0.365
		c0.419-0.039,0.732-0.277,0.78-0.66c0.032-0.238,0.011-0.486-0.036-0.723c-0.055-0.266-0.25-0.447-0.517-0.487
		C57.436,44.274,57.197,44.302,56.966,44.302z"/>
	<path fill="#D9C36B" d="M67.054,45.395c-0.09,0.317-0.146,0.651-0.278,0.952c-0.224,0.513-0.731,0.786-1.247,0.729
		c-0.656-0.073-1.067-0.409-1.208-1.009c-0.108-0.466-0.073-0.928,0.108-1.373c0.264-0.644,0.782-0.932,1.469-0.829
		c0.606,0.09,1.034,0.568,1.093,1.225c0.009,0.098,0.009,0.196,0.013,0.292C67.02,45.384,67.036,45.388,67.054,45.395z
		 M64.869,45.565c0.009,0.007,0.018,0.011,0.026,0.013c0.021,0.123,0.03,0.251,0.063,0.37c0.084,0.305,0.298,0.48,0.597,0.506
		c0.281,0.022,0.519-0.115,0.649-0.397c0.161-0.345,0.202-0.708,0.108-1.078c-0.075-0.297-0.283-0.474-0.588-0.514
		c-0.266-0.031-0.527,0.094-0.645,0.37C64.98,45.064,64.937,45.319,64.869,45.565z"/>
	<path fill="#D9C36B" d="M63.594,44.45c-0.201,0.073-0.389,0.142-0.563,0.207c-0.113-0.117-0.2-0.253-0.323-0.33
		c-0.329-0.213-0.771-0.063-0.949,0.317c-0.175,0.372-0.189,0.759-0.039,1.139c0.148,0.38,0.524,0.545,0.908,0.422
		c0.182-0.063,0.289-0.19,0.318-0.403c-0.157-0.017-0.312-0.029-0.458-0.046c-0.009-0.021-0.014-0.025-0.014-0.031
		c-0.044-0.545-0.044-0.541,0.486-0.521c0.206,0.009,0.415,0,0.615,0c0.146,0.863-0.275,1.536-0.989,1.634
		c-0.825,0.113-1.48-0.378-1.584-1.207c-0.06-0.48-0.026-0.951,0.238-1.375c0.3-0.48,0.741-0.681,1.295-0.638
		C63.055,43.662,63.408,43.93,63.594,44.45z"/>
	<path fill="#D9C36B" d="M52.666,47.166c-0.751,0.106-1.479,0.209-2.225,0.313c-0.147-1.04-0.292-2.06-0.44-3.108
		c0.721-0.103,1.426-0.203,2.153-0.308c0.032,0.205,0.062,0.389,0.094,0.604c-0.509,0.075-1.006,0.148-1.533,0.227
		c0.023,0.173,0.044,0.336,0.07,0.526c0.297-0.038,0.59-0.075,0.895-0.113c0.026,0.207,0.05,0.397,0.074,0.598
		c-0.302,0.044-0.582,0.086-0.879,0.134c0.034,0.246,0.064,0.48,0.1,0.739c0.538-0.073,1.058-0.144,1.603-0.219
		C52.606,46.763,52.634,46.957,52.666,47.166z"/>
	<path fill="#D9C36B" d="M54.823,45.572c-0.305,0.031-0.592,0.063-0.894,0.094c0.023,0.255,0.044,0.489,0.067,0.744
		c0.537-0.046,1.055-0.093,1.608-0.141c0.019,0.199,0.038,0.389,0.058,0.61c-0.744,0.066-1.481,0.134-2.237,0.2
		c-0.094-1.04-0.186-2.068-0.281-3.127c0.727-0.067,1.438-0.13,2.17-0.198c0.02,0.208,0.037,0.395,0.054,0.609
		c-0.505,0.048-1.009,0.097-1.541,0.146c0.016,0.176,0.03,0.339,0.047,0.53c0.288-0.021,0.571-0.044,0.891-0.066
		C54.782,45.171,54.803,45.365,54.823,45.572z"/>
	<path fill="#D9C36B" d="M68.022,44.147c0.207,0.029,0.397,0.057,0.618,0.085c-0.121,0.832-0.24,1.648-0.363,2.493
		c0.521,0.079,1.026,0.156,1.553,0.238c-0.029,0.202-0.057,0.391-0.089,0.607c-0.727-0.106-1.439-0.211-2.181-0.319
		C67.716,46.216,67.867,45.191,68.022,44.147z"/>
	<path fill="#D9C36B" d="M49.66,46.982c0.042,0.213,0.078,0.395,0.117,0.604c-0.722,0.14-1.435,0.278-2.163,0.418
		c-0.199-1.036-0.394-2.05-0.594-3.082c0.2-0.039,0.388-0.079,0.613-0.125c0.16,0.825,0.319,1.64,0.481,2.476
		C48.63,47.177,49.134,47.08,49.66,46.982z"/>
	<path fill="#D9C36B" d="M50.441,9.278c-0.134-0.314-0.27-0.632-0.417-0.978c0.351-0.143,0.69-0.301,1.042-0.419
		c0.266-0.088,0.562,0.146,0.591,0.429c0.043,0.386,0.004,0.459-0.356,0.619c-0.268,0.117-0.537,0.229-0.806,0.343
		C50.485,9.276,50.471,9.274,50.441,9.278z"/>
	<path fill="#D9C36B" d="M49.716,7.576c-0.106-0.247-0.201-0.469-0.309-0.725c0.343-0.139,0.669-0.289,1.009-0.401
		c0.194-0.063,0.35,0.054,0.421,0.247c0.07,0.197,0.015,0.354-0.167,0.465c-0.029,0.019-0.061,0.034-0.093,0.048
		C50.299,7.328,50.017,7.446,49.716,7.576z"/>
	<path fill="#D9C36B" d="M64.229,55.606c-0.07-0.341-0.136-0.651-0.203-0.99c0.396-0.077,0.773-0.169,1.156-0.224
		c0.275-0.04,0.455,0.115,0.508,0.383c0.056,0.286-0.044,0.497-0.319,0.572C65.004,55.45,64.628,55.519,64.229,55.606z"/>
	<path fill="#D9C36B" d="M63.731,53.191c0.361-0.075,0.7-0.15,1.04-0.218c0.262-0.05,0.424,0.053,0.475,0.285
		c0.046,0.219-0.05,0.361-0.316,0.426c-0.344,0.081-0.69,0.148-1.052,0.224C63.827,53.657,63.781,53.436,63.731,53.191z"/>
	<path fill="#D9C36B" d="M36.906,22.161c-0.332-0.124-0.641-0.24-0.976-0.364c0.144-0.372,0.269-0.738,0.427-1.09
		c0.115-0.256,0.359-0.322,0.637-0.213c0.261,0.099,0.385,0.314,0.301,0.581C37.181,21.436,37.04,21.79,36.906,22.161z"/>
	<path fill="#D9C36B" d="M64.687,7.624c0.2-0.841,0.398-1.663,0.598-2.498c0.521,0.102,1.046,0.19,1.222,0.756
		c0.186,0.601,0.05,1.177-0.395,1.624C65.693,7.927,65.187,7.751,64.687,7.624z"/>
	<path fill="#D9C36B" d="M81.881,21.405c-0.521,0.002-0.807-0.178-0.957-0.532c-0.15-0.351-0.093-0.706,0.198-0.978
		c0.451-0.42,0.981-0.674,1.61-0.592c0.65,0.087,0.954,0.879,0.537,1.385C82.887,21.156,82.354,21.349,81.881,21.405z"/>
	<g>
		<g>
			<g>
				<path id="SVGID_1_" fill="#D9C36B" d="M85.543,52.293c0.926,0,1.684,0.752,1.684,1.688c0,0.925-0.758,1.68-1.684,1.68
					c-0.931,0-1.686-0.755-1.686-1.68C83.857,53.045,84.612,52.293,85.543,52.293 M85.543,52.076c-1.049,0-1.899,0.854-1.899,1.905
					c0,1.04,0.851,1.893,1.899,1.893c1.048,0,1.907-0.853,1.907-1.893C87.45,52.931,86.591,52.076,85.543,52.076z"/>
			</g>
		</g>
		<g>
			<g>
				<path id="SVGID_3_" fill="#D9C36B" d="M84.83,52.702c0.159-0.033,0.389-0.052,0.608-0.052c0.333,0,0.559,0.064,0.712,0.192
					c0.118,0.11,0.188,0.277,0.188,0.47c0,0.326-0.203,0.541-0.464,0.618v0.02c0.196,0.066,0.305,0.235,0.355,0.484
					c0.085,0.354,0.144,0.581,0.2,0.684h-0.335c-0.028-0.076-0.091-0.284-0.162-0.588c-0.073-0.338-0.198-0.47-0.491-0.48h-0.299
					v1.068H84.83V52.702 M85.144,53.808h0.328c0.339,0,0.545-0.184,0.545-0.459c0-0.318-0.221-0.454-0.558-0.454
					c-0.144,0-0.264,0.011-0.315,0.021V53.808z"/>
			</g>
		</g>
	</g>
</g>
</svg>
