<?xml version="1.0" encoding="utf-8"?>
<!-- Generator: Adobe Illustrator 16.0.0, SVG Export Plug-In . SVG Version: 6.00 Build 0)  -->
<!DOCTYPE svg PUBLIC "-//W3C//DTD SVG 1.0//EN" "http://www.w3.org/TR/2001/REC-SVG-20010904/DTD/svg10.dtd">
<svg version="1.0" id="Layer_1" xmlns="http://www.w3.org/2000/svg" xmlns:xlink="http://www.w3.org/1999/xlink" x="0px" y="0px"
	 width="150px" height="60px" viewBox="14.951 4.292 150 60" enable-background="new 14.951 4.292 150 60" xml:space="preserve">
<g>
	<path fill="#D8C663" d="M162.997,43.418c-0.77,0-1.401,0.621-1.401,1.395c0,0.766,0.632,1.389,1.401,1.389
		c0.776,0,1.4-0.622,1.4-1.389C164.397,44.042,163.773,43.418,162.997,43.418z M162.997,46.044c-0.68,0-1.239-0.556-1.239-1.231
		c0-0.686,0.56-1.235,1.239-1.235c0.687,0,1.241,0.549,1.241,1.235C164.238,45.489,163.682,46.044,162.997,46.044z M163.568,45.452
		c0.01,0.018-0.021-0.027-0.043-0.064l-0.041-0.063c-0.062-0.13-0.26-0.343-0.217-0.308c0.034,0.03-0.144-0.129-0.158-0.121
		c0.289-0.064,0.337-0.151,0.365-0.191c0.044-0.06,0.063-0.136,0.063-0.236c0-0.143-0.05-0.246-0.15-0.311
		c-0.081-0.052-0.191-0.078-0.331-0.078h-0.677v1.457h0.196v-0.622h0.22c0.085,0,0.146,0.02,0.188,0.051
		c0.048,0.037,0.066,0.048,0.128,0.148c0.023,0.034,0.072,0.104,0.121,0.18c0.045,0.068,0.125,0.212,0.137,0.248h0.252l-0.022-0.032
		C163.598,45.507,163.548,45.415,163.568,45.452z M163.035,44.743h-0.458v-0.498h0.496c0.069,0,0.125,0.014,0.169,0.04
		c0.057,0.038,0.092,0.105,0.092,0.203c0,0.097-0.035,0.166-0.092,0.208C163.194,44.728,163.126,44.743,163.035,44.743z"/>
	<path fill="#D8C663" d="M44.522,51.566C32.05,34.304,40.983,10.828,61.76,6.271c0.519-0.113,1.052-0.16,1.577-0.237
		c0.578-0.316,1.277,0.122,1.838-0.299c2.135,0,4.271,0,6.407,0c2.236,0.852,4.635,1.138,6.857,2.083
		c4.799,2.043,8.756,5.112,11.971,9.205c0.708,0.901,0.651,1.37-0.312,2.039c-2.867,1.994-5.695,4.052-8.459,6.183
		c-1.054,0.813-1.562,0.78-2.506-0.279c-5.019-5.622-11.345-7.899-18.716-6.247c-7.203,1.612-12.044,6.169-14.232,13.239
		c-1.956,6.317-0.693,12.159,3.291,17.417c0.391,0.515,0.789,1.029,1.182,1.54c1.081,0.942-0.579,0.597-0.992,0.73
		c-1.236,0.277-2.518,0.082-3.761,0.381C45.408,52.146,44.862,52.081,44.522,51.566z"/>
	<path fill="#D8C663" d="M45.577,52.755c1.776-0.394,3.554-0.785,5.329-1.175c0.246-0.161,0.48-0.151,0.702,0.046
		c5.702,5.283,13.936,6.627,20.944,3.312c1.213-0.575,1.727-0.39,2.268,0.785c0.687,1.503,1.539,2.932,2.383,4.355
		c0.452,0.761,0.492,1.184-0.488,1.511C65.276,65.403,52.646,61.614,45.577,52.755z"/>
	<path fill="#D8C663" d="M82.616,38.836c3.613-2.679,7.232-5.341,9.965-9.005c1.922-2.577,3.107-5.416,3.471-8.608
		c0.43-3.761-1.34-6.469-4.118-8.713c-1.707-1.379-3.747-2.129-5.722-3.043c3.986-0.171,7.886,0.099,11.534,1.843
		c5.031,2.404,6.465,6.676,3.852,11.597c-2.122,4.003-5.362,7.041-8.835,9.841c-3.042,2.45-6.223,4.706-9.707,6.504
		C82.677,39.361,82.564,39.185,82.616,38.836z"/>
	<path fill="#D8C663" d="M126.629,55.807c-1.51,2.594-3.193,5.021-5.791,6.623c-2.76,1.702-4.959,0.848-5.851-2.264
		c-0.977-3.42-0.476-6.827,0.379-10.177c1.403-5.52,3.605-10.662,7.703-14.775c1.48-1.485,3.158-2.957,5.458-2.162
		c2.359,0.817,2.49,3.125,2.769,5.159c0.158,1.16,0.061,2.373-0.039,3.549c-0.056,0.665,0.121,1.531-1.19,1.463
		c-1.25-0.068-1.387-0.596-1.396-1.638c-0.017-1.655,0.02-3.579-1.845-4.266c-1.895-0.701-3.126,0.861-4.11,2.132
		c-3.743,4.838-5.777,10.279-5.274,16.494c0.103,1.277,0.475,2.539,1.849,2.988c1.308,0.427,2.231-0.495,3.134-1.257
		c0.36-0.303,0.729-0.641,0.964-1.038C124.14,55.369,125.104,54.906,126.629,55.807z"/>
	<path fill="#D8C663" d="M145.386,47.278c-0.416,1.992-0.88,3.976-1.23,5.978c-0.188,1.087-0.793,1.326-1.739,1.189
		c-1.346-0.193-0.563-1.065-0.455-1.609c0.497-2.552,1.022-5.099,1.641-7.618c0.176-0.721-0.1-1.819,1.359-1.854
		c1.267-0.03,1.747,0.452,2.103,1.571c0.602,1.901,1.368,3.751,2.246,6.11c0.571-2.474,1.104-4.456,1.465-6.474
		c0.2-1.131,0.828-1.294,1.733-1.146c1.177,0.191,0.507,0.997,0.402,1.504c-0.568,2.773-1.205,5.538-1.808,8.306
		c-0.142,0.643-0.183,1.293-1.139,1.231c-0.829-0.054-1.571,0.087-1.93-1.037c-0.671-2.102-1.533-4.142-2.315-6.207
		C145.607,47.24,145.498,47.259,145.386,47.278z"/>
	<path fill="#D8C663" d="M129.265,51.467c-1.621,2.653-5.046,3.854-7.814,2.742c-1.722-0.69-2.743-2.252-2.729-4.178
		c0.03-4.168,4.346-7.661,8.422-6.817c0.889,0.184,1.736,0.507,2.338,1.188c0.513,0.583,1.397,1.423,0.791,2.044
		c-0.448,0.458-1.627,0.405-2.45-0.22c-2.093-1.584-4.372-1.223-6.014,0.881c-1.122,1.44-1.243,3.314-0.284,4.415
		c0.895,1.028,2.738,1.229,4.286,0.465C127.416,51.194,127.416,51.194,129.265,51.467z"/>
	<path fill="#D8C663" d="M87.199,51.345c-1.728,2.613-4.471,3.789-7.149,3.112c-1.693-0.428-2.813-1.545-3.135-3.269
		c-0.477-2.56,0.474-4.671,2.405-6.308c1.869-1.582,4.017-2.27,6.437-1.407c0.538,0.192,1.088,0.525,1.47,0.938
		c0.524,0.57,1.462,1.36,0.808,2.034c-0.441,0.451-1.609,0.406-2.438-0.235c-2.148-1.665-4.905-0.969-6.197,1.541
		c-0.662,1.283-0.868,2.683,0.175,3.828c1.103,1.21,2.64,1.203,3.914,0.439C84.657,51.321,85.788,51.252,87.199,51.345z"/>
	<path fill="#D8C663" d="M160.622,44.549c-0.202,0.685,0.586,1.711-0.373,2.029c-0.692,0.229-1.758,0.546-2.254-0.68
		c-0.201-0.497-0.702-0.293-1.02,0.049c-0.376,0.407-0.439,0.863,0.021,1.232c0.459,0.37,0.975,0.667,1.46,1.003
		c1.67,1.151,1.962,3.174,0.72,4.95c-1.051,1.502-3.477,2.034-4.914,1.066c-1.011-0.682-1.253-1.707-1.047-2.814
		c0.175-0.938,1.013-0.569,1.609-0.644c0.591-0.074,0.795,0.29,0.992,0.779c0.236,0.589,0.719,0.825,1.257,0.355
		c0.479-0.414,0.434-0.98,0.054-1.427c-0.26-0.3-0.666-0.48-1.013-0.701c-1.953-1.227-2.385-2.307-1.643-4.096
		c0.746-1.79,2.618-2.784,4.456-2.377c0.396,0.089,0.799,0.145,1.199,0.216C160.599,43.698,160.79,44.042,160.622,44.549z"/>
	<path fill="#D8C663" d="M109.384,54.442c-3.403,0.01-3.399,0.011-2.664-3.271c0.503-2.251,1.044-4.494,1.463-6.763
		c0.166-0.898,0.555-1.185,1.414-1.16c1.481,0.043,2.963,0.003,4.444,0.017c0.522,0.004,1.136-0.077,1.02,0.794
		c-0.084,0.638-0.222,1.183-1.04,1.135c-0.177-0.012-0.354-0.002-0.533,0.005c-3.358,0.092-3.358,0.092-4.047,3.322
		c-0.013,0.057-0.032,0.112-0.043,0.173c-0.202,1.164-0.932,2.643-0.471,3.404c0.529,0.877,2.174,0.186,3.324,0.326
		c0.418,0.052,1.075-0.182,0.979,0.613c-0.074,0.618-0.068,1.385-1.003,1.403C111.279,54.458,110.331,54.442,109.384,54.442z"/>
	<path fill="#D8C663" d="M103.541,43.409c0.651,0,1.309-0.045,1.953,0.016c0.428,0.039,1.213-0.334,1.049,0.662
		c-0.092,0.557-0.043,1.325-0.93,1.201c-1.352-0.193-1.531,0.635-1.725,1.662c-0.391,2.091-0.932,4.153-1.314,6.246
		c-0.171,0.926-0.517,1.386-1.503,1.254c-1.304-0.173-0.645-1.079-0.544-1.627c0.38-2.091,0.869-4.164,1.321-6.244
		c0.163-0.744,0.318-1.441-0.876-1.289c-0.378,0.049-0.963,0.082-0.804-0.574c0.123-0.504-0.004-1.285,0.885-1.297
		c0.827-0.01,1.657-0.001,2.486-0.001C103.541,43.414,103.541,43.412,103.541,43.409z"/>
	<path fill="#D8C663" d="M112.452,47.715c0.35,0.3,1.528-0.712,1.495,0.751c-0.036,1.57-1.266,1.13-2.088,1.066
		c-0.547-0.04-1.582,0.644-1.649-0.558C110.124,47.456,111.269,47.61,112.452,47.715z"/>
	<path fill="#D8C663" d="M136.873,43.165c-3.354,0.054-6.292,3.395-6.251,7.116c0.027,2.585,1.844,4.435,4.317,4.4
		c3.343-0.05,6.395-3.437,6.361-7.059C141.277,44.932,139.482,43.124,136.873,43.165z M135.269,52.635
		c-1.543,0-2.625-1.234-2.604-2.971c0.03-2.376,1.861-4.402,3.991-4.418c1.656-0.012,2.641,1.074,2.611,2.887
		C139.234,50.397,137.248,52.634,135.269,52.635z"/>
	<path fill="#D8C663" d="M94.589,43.166c-3.403,0.001-6.323,3.23-6.333,6.999c-0.006,2.673,1.669,4.504,4.145,4.531
		c3.315,0.041,6.449-3.288,6.529-6.931C98.988,45.157,97.107,43.164,94.589,43.166z M92.724,52.65
		c-1.438-0.067-2.569-1.331-2.567-2.865c0.001-2.333,1.992-4.533,4.101-4.536c1.592-0.002,2.621,1.151,2.598,2.9
		C96.821,50.499,94.758,52.745,92.724,52.65z"/>
	<path fill="#D8C663" d="M44.522,51.566c1.754-0.103,3.507-0.203,5.26-0.303c0.475-0.109,0.922-0.146,3.538-0.488
		c-1.646,1.153-5.269,1.555-7.74,1.98c-4.827,0.512-9.642,1.239-14.521,0.904c-3.316-0.229-6.614-0.564-9.727-1.855
		c-4.931-2.046-6.631-6.272-4.439-11.146c1.415-3.146,3.724-5.604,6.267-7.868c4.36-3.883,9.33-6.892,14.257-9.957
		c0.255-0.159,0.538-0.501,1.021-0.228c0.056,0.753-0.62,1.068-1.006,1.504c-2.833,3.197-5.713,6.353-7.794,10.124
		c-0.926,1.675-1.637,3.432-1.825,5.346c-0.624,6.358,2.695,10.553,9.269,11.666C39.538,51.664,42.025,51.819,44.522,51.566z"/>
</g>
</svg>
