<?xml version="1.0" encoding="utf-8"?>
<!-- Generator: Adobe Illustrator 16.0.0, SVG Export Plug-In . SVG Version: 6.00 Build 0)  -->
<!DOCTYPE svg PUBLIC "-//W3C//DTD SVG 1.1//EN" "http://www.w3.org/Graphics/SVG/1.1/DTD/svg11.dtd">
<svg version="1.1" id="Layer_1" xmlns="http://www.w3.org/2000/svg" xmlns:xlink="http://www.w3.org/1999/xlink" x="0px" y="0px"
	 width="200px" height="56px" viewBox="0 0 200 56" enable-background="new 0 0 200 56" xml:space="preserve">
<g>
	<g>
		<path fill="#D8C663" d="M2.902,8.386h24.629c1.199,0,2.171,0.977,2.171,2.179v7.117c0,1.203-0.972,2.18-2.171,2.18H11.1
			c-0.677,0-1.229,0.554-1.229,1.237v5.913c0,0.683,0.553,1.236,1.229,1.236h23.538c1.894,0,3.426-1.539,3.426-3.438V3.434
			C38.064,1.537,36.532,0,34.638,0H3.425C1.533,0,0,1.537,0,3.434v6.913C0,9.628,1.011,8.386,2.902,8.386z M3.425,38.179h31.217
			c1.89,0,3.422-1.536,3.422-3.435v-6.911c0,0.719-1.006,1.961-2.901,1.961H10.535c-1.199,0-2.172-0.978-2.172-2.178v-7.12
			c0-1.204,0.973-2.18,2.172-2.18h16.43c0.679,0,1.233-0.556,1.233-1.239v-5.911c-0.001-0.681-0.554-1.237-1.233-1.237H3.425
			C1.533,9.929,0,11.472,0,13.367v21.377C0,36.643,1.533,38.179,3.425,38.179z M46.771,37.401c0.219-0.247,0.373-0.533,0.462-0.862
			c0.09-0.331,0.136-0.685,0.136-1.066v-0.268h-1.567c0,0.17-0.008,0.359-0.027,0.571c-0.018,0.209-0.063,0.404-0.14,0.583
			c-0.073,0.18-0.196,0.33-0.364,0.455c-0.168,0.123-0.401,0.185-0.696,0.185c-0.296,0-0.527-0.062-0.688-0.181
			c-0.159-0.119-0.281-0.264-0.357-0.435c-0.076-0.17-0.12-0.358-0.131-0.56c-0.008-0.202-0.013-0.391-0.013-0.56v-2.71
			c0-0.172,0.005-0.35,0.019-0.533c0.016-0.18,0.06-0.351,0.143-0.507c0.078-0.154,0.194-0.282,0.347-0.382
			c0.159-0.103,0.382-0.151,0.669-0.151c0.272,0,0.488,0.049,0.644,0.151c0.16,0.1,0.279,0.229,0.362,0.39
			c0.081,0.157,0.131,0.328,0.152,0.513c0.02,0.184,0.03,0.358,0.03,0.531h1.575V32.32c0-0.356-0.052-0.689-0.162-0.998
			c-0.105-0.307-0.269-0.574-0.493-0.798c-0.224-0.226-0.51-0.404-0.861-0.531c-0.352-0.129-0.768-0.193-1.246-0.193
			c-0.406,0-0.806,0.059-1.19,0.175c-0.391,0.117-0.71,0.31-0.966,0.574c-0.154,0.173-0.275,0.346-0.358,0.53
			c-0.079,0.181-0.138,0.366-0.171,0.558c-0.037,0.188-0.055,0.384-0.06,0.576c-0.006,0.194-0.01,0.394-0.01,0.596v2.846
			c0,0.189,0.015,0.378,0.044,0.569c0.033,0.188,0.077,0.374,0.144,0.553c0.07,0.181,0.172,0.348,0.306,0.502
			c0.264,0.327,0.585,0.559,0.977,0.695c0.381,0.137,0.815,0.205,1.296,0.205c0.531,0,0.973-0.068,1.332-0.205
			C46.264,37.837,46.554,37.644,46.771,37.401z M62.39,30.594c-0.268-0.29-0.594-0.491-0.975-0.61
			c-0.381-0.123-0.791-0.184-1.228-0.184c-0.428,0-0.837,0.061-1.231,0.184c-0.393,0.119-0.716,0.32-0.971,0.61
			c-0.252,0.28-0.414,0.585-0.481,0.911c-0.068,0.325-0.101,0.66-0.101,1.003v2.965c0,0.333,0.032,0.67,0.094,1.006
			c0.062,0.34,0.228,0.646,0.488,0.918c0.267,0.285,0.59,0.487,0.979,0.606c0.386,0.116,0.795,0.176,1.223,0.176
			c0.43,0,0.835-0.06,1.228-0.176c0.391-0.119,0.716-0.321,0.975-0.606c0.264-0.289,0.425-0.596,0.485-0.918
			c0.058-0.322,0.088-0.656,0.088-1.006v-2.965c0-0.335-0.03-0.671-0.088-1.003C62.814,31.169,62.654,30.866,62.39,30.594z
			 M61.397,35.448c0,0.18-0.011,0.357-0.027,0.544c-0.017,0.181-0.065,0.348-0.141,0.499c-0.073,0.151-0.191,0.272-0.358,0.366
			c-0.163,0.094-0.392,0.142-0.685,0.142c-0.298,0-0.53-0.048-0.69-0.142c-0.16-0.094-0.282-0.215-0.359-0.366
			c-0.075-0.151-0.124-0.318-0.136-0.499c-0.016-0.187-0.023-0.364-0.023-0.544v-2.92c0-0.179,0.007-0.36,0.023-0.542
			c0.013-0.182,0.062-0.349,0.136-0.5c0.077-0.15,0.199-0.273,0.359-0.366c0.161-0.094,0.393-0.139,0.69-0.139
			c0.202,0,0.396,0.034,0.58,0.108c0.181,0.074,0.322,0.186,0.43,0.33c0.109,0.17,0.168,0.352,0.182,0.544
			c0.012,0.189,0.019,0.379,0.019,0.564V35.448z M77.021,34.375c0.508-0.214,0.865-0.511,1.07-0.893
			c0.204-0.383,0.307-0.795,0.307-1.232c0-0.764-0.251-1.345-0.75-1.737c-0.498-0.396-1.229-0.597-2.186-0.597h-2.461v8.143h1.576
			v-3.344h0.945l1.343,3.344h1.651L77.021,34.375z M76.397,33.299c-0.245,0.17-0.656,0.255-1.238,0.255h-0.583V31.08h0.583
			c0.209,0,0.431,0.014,0.655,0.035c0.22,0.024,0.413,0.102,0.569,0.233c0.149,0.135,0.248,0.288,0.299,0.452
			c0.052,0.167,0.079,0.341,0.079,0.52C76.762,32.802,76.639,33.127,76.397,33.299z M91.163,29.916h-2.611v8.143h1.577v-3.295h1.034
			c0.389,0,0.771-0.029,1.143-0.094c0.372-0.061,0.708-0.204,1.001-0.432c0.313-0.241,0.526-0.525,0.638-0.852
			c0.112-0.325,0.169-0.658,0.169-1c0-0.83-0.227-1.449-0.681-1.856C92.979,30.12,92.227,29.916,91.163,29.916z M92.119,33.328
			c-0.236,0.182-0.675,0.273-1.306,0.273h-0.684V31.08h0.684c0.593,0,1.018,0.08,1.279,0.242c0.254,0.16,0.384,0.486,0.384,0.974
			C92.476,32.802,92.36,33.145,92.119,33.328z M104.731,37.396c0.262,0.285,0.586,0.487,0.975,0.606
			c0.39,0.116,0.797,0.176,1.226,0.176c0.43,0,0.837-0.06,1.227-0.176c0.391-0.119,0.716-0.321,0.976-0.606
			c0.264-0.289,0.426-0.596,0.485-0.918c0.058-0.322,0.089-0.656,0.089-1.006v-2.965c0-0.335-0.031-0.671-0.089-1.003
			c-0.06-0.336-0.222-0.639-0.485-0.911c-0.27-0.29-0.594-0.491-0.976-0.61c-0.379-0.123-0.789-0.184-1.227-0.184
			c-0.429,0-0.839,0.061-1.23,0.184c-0.396,0.119-0.717,0.32-0.97,0.61c-0.254,0.28-0.416,0.585-0.481,0.911
			c-0.069,0.325-0.104,0.66-0.104,1.003v2.965c0,0.333,0.032,0.67,0.094,1.006C104.305,36.818,104.467,37.124,104.731,37.396z
			 M105.722,32.528c0-0.179,0.009-0.36,0.022-0.542c0.016-0.182,0.062-0.349,0.137-0.5c0.078-0.15,0.197-0.273,0.359-0.366
			c0.162-0.094,0.392-0.139,0.691-0.139c0.202,0,0.396,0.034,0.577,0.108c0.183,0.074,0.325,0.186,0.427,0.33
			c0.11,0.17,0.177,0.352,0.188,0.544c0.011,0.189,0.016,0.379,0.016,0.564v2.92c0,0.18-0.008,0.357-0.026,0.544
			c-0.016,0.181-0.06,0.348-0.137,0.499c-0.073,0.151-0.194,0.272-0.357,0.366c-0.164,0.094-0.392,0.142-0.687,0.142
			c-0.3,0-0.529-0.048-0.691-0.142s-0.281-0.215-0.359-0.366c-0.075-0.151-0.121-0.318-0.137-0.499
			c-0.014-0.187-0.022-0.364-0.022-0.544V32.528z M125.258,38.059l-1.491-3.684c0.507-0.214,0.864-0.511,1.067-0.893
			c0.204-0.383,0.304-0.795,0.304-1.232c0-0.764-0.247-1.345-0.748-1.737c-0.504-0.396-1.228-0.597-2.187-0.597h-2.46v8.143h1.574
			v-3.344h0.949l1.345,3.344H125.258z M123.137,33.299c-0.241,0.17-0.654,0.255-1.235,0.255h-0.584V31.08h0.584
			c0.213,0,0.432,0.014,0.655,0.035c0.224,0.024,0.412,0.102,0.566,0.233c0.151,0.135,0.249,0.288,0.304,0.452
			c0.054,0.167,0.079,0.341,0.079,0.52C123.506,32.802,123.384,33.127,123.137,33.299z M139.408,29.916h-2.157l-1.957,8.143h1.546
			l0.395-1.77h2.188l0.422,1.77h1.624L139.408,29.916z M137.494,35.128l0.808-3.647l0.842,3.647H137.494z M157.034,29.916h-5.531
			v1.164h1.969v6.979h1.573V31.08h1.989V29.916z M167.065,38.062h1.576v-8.146h-1.576V38.062z M180.236,38.003
			c0.389,0.116,0.798,0.176,1.226,0.176s0.838-0.06,1.227-0.176c0.391-0.119,0.714-0.321,0.977-0.606
			c0.262-0.289,0.423-0.596,0.483-0.918c0.058-0.322,0.09-0.656,0.09-1.006v-2.965c0-0.335-0.032-0.671-0.09-1.003
			c-0.061-0.336-0.222-0.639-0.483-0.911c-0.271-0.29-0.597-0.491-0.977-0.61c-0.38-0.123-0.789-0.184-1.227-0.184
			c-0.428,0-0.841,0.061-1.231,0.184c-0.393,0.119-0.718,0.32-0.972,0.61c-0.254,0.28-0.414,0.585-0.481,0.911
			c-0.068,0.325-0.102,0.66-0.102,1.003v2.965c0,0.333,0.033,0.67,0.096,1.006c0.061,0.34,0.222,0.646,0.487,0.918
			C179.523,37.682,179.85,37.884,180.236,38.003z M180.253,32.528c0-0.179,0.007-0.36,0.022-0.542
			c0.012-0.182,0.059-0.349,0.135-0.5c0.078-0.15,0.196-0.273,0.362-0.366c0.158-0.094,0.391-0.139,0.689-0.139
			c0.204,0,0.397,0.034,0.578,0.108c0.179,0.074,0.322,0.186,0.427,0.33c0.112,0.17,0.175,0.352,0.186,0.544
			c0.013,0.189,0.019,0.379,0.019,0.564v2.92c0,0.18-0.009,0.357-0.028,0.544c-0.016,0.181-0.063,0.348-0.136,0.499
			c-0.076,0.151-0.195,0.272-0.359,0.366c-0.162,0.094-0.396,0.142-0.686,0.142c-0.299,0-0.531-0.048-0.689-0.142
			c-0.166-0.094-0.284-0.215-0.362-0.366c-0.076-0.151-0.123-0.318-0.135-0.499c-0.016-0.187-0.022-0.364-0.022-0.544V32.528z
			 M195.772,32.641l2.732,5.418h1.413v-8.143h-1.504v5.068l-2.551-5.068h-1.593v8.143h1.502V32.641z M74.352,26.417V0.035h-4.504
			v13.313h-6.573V0.035h-4.502v26.382h4.502V16.041h6.573v10.376H74.352z M142.872,13.348h-6.569V0.035h-4.51v26.382h4.51V16.041
			h6.569v10.376h4.512V0.035h-4.512V13.348z M118.149,16.294l6.313,10.123h4.832l-8.586-13.771l8.354-12.618h-4.866l-6.047,9.13
			V0.035h-4.501v26.382h4.501V16.294z M182.854,0.035h-4.502v15.543l-6.809-15.334l-0.101-0.226h-4.409v26.377h4.506l-0.013-15.666
			l6.941,15.666h4.386V0.035z M80.634,26.407h7.105c3.112,0,3.762-1.614,3.762-2.971V0.035H86.99l0.009,22.719
			c-0.042,0.533-0.484,0.956-1.029,0.956v0.005h-3.574V23.71c-0.546,0-0.988-0.426-1.028-0.965V0.035h-4.515v23.398
			C76.853,25.351,78.195,26.407,80.634,26.407z M154.39,16.046h5.635v10.361h4.507V3.002c0-1.912-1.34-2.967-3.774-2.967h-7.107
			c-3.113,0-3.765,1.613-3.765,2.967v23.405h4.505V16.046z M154.39,3.673c0.038-0.466,0.375-0.845,0.819-0.937h3.989
			c0.457,0.096,0.808,0.493,0.826,0.976v9.636h-5.635V3.673z M200,11.062v-8.06c0-1.354-0.654-2.967-3.759-2.967h-7.108
			c-2.438,0-3.778,1.055-3.778,2.967v20.432c0,1.917,1.341,2.974,3.778,2.974h7.108c3.104,0,3.759-1.614,3.759-2.971V13.348h-7.309
			v2.698h2.804v6.757c-0.053,0.472-0.419,0.847-0.89,0.912h-3.849c-0.494-0.068-0.876-0.482-0.896-0.992v-19
			c0.018-0.487,0.365-0.891,0.825-0.986h3.988c0.437,0.09,0.77,0.456,0.82,0.907v7.418H200z M104.881,26.407
			c3.113,0,3.765-1.614,3.765-2.971v-8.06h-4.508v7.3c0,0.565-0.451,1.021-1.012,1.038h-3.631c-0.508-0.015-0.924-0.398-0.994-0.894
			V3.627c0.07-0.486,0.471-0.861,0.966-0.891h3.69c0.546,0.03,0.98,0.483,0.98,1.037v7.288h4.508v-8.06
			c0-1.354-0.651-2.967-3.765-2.967h-7.105c-2.435,0-3.774,1.055-3.774,2.967v20.432c0,1.917,1.339,2.974,3.774,2.974H104.881z
			 M46.321,16.048h5.817c0.968,0,4.134-0.191,4.134-2.663V2.646c0-0.304,0-1.232-0.995-1.911C54.563,0.25,53.506,0,52.138,0H41.806
			v26.396h4.515V16.048z M46.321,2.7h4.5c0.473,0.032,0.855,0.381,0.941,0.836v8.982c-0.086,0.451-0.464,0.789-0.925,0.829h-4.516
			V2.7z M4.034,48.605c1.02-0.434,1.533-1.188,1.533-2.258c0-0.844-0.256-1.462-0.762-1.851c-0.445-0.345-1.096-0.519-1.951-0.519H0
			v9.788h2.658c1.004,0,1.773-0.207,2.311-0.623c0.594-0.459,0.892-1.171,0.892-2.135C5.86,49.718,5.251,48.919,4.034,48.605z
			 M1.408,44.929h1.073c0.6,0,1.024,0.132,1.269,0.396c0.254,0.261,0.379,0.646,0.379,1.152c0,0.606-0.146,1.047-0.43,1.32
			c-0.289,0.278-0.763,0.416-1.422,0.416h-0.87V44.929z M3.876,52.461c-0.289,0.234-0.8,0.354-1.534,0.354H1.408v-3.655h1.006
			c0.746,0,1.269,0.159,1.567,0.479c0.279,0.305,0.415,0.749,0.415,1.331C4.396,51.692,4.222,52.188,3.876,52.461z M12.998,47.045
			v-0.914h-1.392v4.721c0,0.573-0.119,1.048-0.36,1.418c-0.278,0.441-0.69,0.663-1.239,0.663c-0.45,0-0.771-0.168-0.967-0.505
			c-0.158-0.279-0.235-0.685-0.235-1.215v-5.082H7.409v5.312c0,1.62,0.773,2.43,2.32,2.43c0.994,0,1.729-0.41,2.21-1.234
			l0.283,1.129h0.776v-5.456c0.443-0.104,0.761-0.291,0.951-0.559c0.258-0.358,0.395-0.937,0.408-1.732h-1.092
			C13.294,46.477,13.206,46.818,12.998,47.045z M20.111,47.083c-0.531-0.71-1.306-1.063-2.328-1.063
			c-1.04,0-1.829,0.383-2.362,1.148c-0.471,0.666-0.706,1.552-0.706,2.659c0,0.561,0.046,1.063,0.138,1.512
			c0.105,0.506,0.266,0.936,0.482,1.292c0.51,0.827,1.33,1.241,2.447,1.241c1.073,0,1.864-0.377,2.379-1.137
			c0.459-0.678,0.693-1.639,0.693-2.881c0-0.647-0.075-1.219-0.231-1.714c0.208-0.103,0.364-0.23,0.479-0.389
			c0.26-0.358,0.395-0.937,0.408-1.732h-1.095C20.451,46.512,20.349,46.869,20.111,47.083z M19.369,50.831
			c-0.042,0.398-0.116,0.74-0.209,1.023c-0.255,0.718-0.714,1.078-1.375,1.078c-0.344,0-0.632-0.113-0.87-0.342
			c-0.204-0.196-0.367-0.474-0.492-0.832c-0.095-0.293-0.167-0.639-0.206-1.031c-0.032-0.288-0.047-0.604-0.047-0.938
			c0-0.318,0.017-0.61,0.053-0.881c0.042-0.356,0.115-0.663,0.216-0.921c0.271-0.684,0.719-1.022,1.346-1.022
			c0.598,0,1.034,0.345,1.316,1.044c0.112,0.266,0.194,0.574,0.244,0.925c0.043,0.281,0.066,0.564,0.066,0.855
			C19.409,50.19,19.398,50.539,19.369,50.831z M17.797,45.585l1.43-1.878H18.04l-1.248,1.878H17.797z M25.635,52.919
			c-0.741,0-1.27-0.347-1.592-1.037c-0.127-0.275-0.222-0.604-0.281-0.984c-0.049-0.307-0.073-0.646-0.073-1.018
			c0-0.355,0.027-0.686,0.08-0.99c0.066-0.363,0.16-0.677,0.293-0.942c0.327-0.645,0.852-0.968,1.573-0.968
			c0.477,0,0.89,0.052,1.235,0.155v-0.95c-0.444-0.112-0.875-0.165-1.287-0.165c-1.143,0-1.997,0.363-2.57,1.096
			c-0.512,0.657-0.771,1.57-0.771,2.739c0,0.563,0.049,1.072,0.144,1.521c0.109,0.506,0.281,0.932,0.512,1.289
			c0.525,0.805,1.348,1.207,2.478,1.207c0.558,0,1.071-0.064,1.547-0.198v-0.905c-0.206,0.063-0.419,0.103-0.642,0.125
			C26.122,52.912,25.904,52.919,25.635,52.919z M34.623,49.669c-0.162-0.094-0.379-0.207-0.651-0.34
			c-0.452-0.215-0.767-0.398-0.95-0.551c-0.246-0.211-0.37-0.456-0.37-0.736c0-0.717,0.423-1.076,1.268-1.076
			c0.514,0,1.047,0.093,1.596,0.281v-0.985c-0.519-0.162-1.1-0.242-1.739-0.242c-0.707,0-1.292,0.177-1.749,0.532
			c-0.505,0.393-0.761,0.935-0.761,1.62c0,0.579,0.19,1.053,0.57,1.426c0.153,0.145,0.345,0.284,0.573,0.421
			c0.138,0.079,0.352,0.191,0.638,0.335c0.464,0.222,0.781,0.413,0.958,0.569c0.25,0.227,0.371,0.51,0.371,0.841
			c0,0.78-0.468,1.169-1.406,1.169c-0.28,0-0.591-0.033-0.937-0.098c-0.234-0.05-0.543-0.124-0.93-0.223v1.004
			c0.354,0.082,0.679,0.145,0.978,0.185c0.346,0.047,0.673,0.071,0.983,0.071c0.814,0,1.452-0.174,1.915-0.521
			c0.52-0.387,0.779-0.981,0.779-1.776c0-0.586-0.188-1.074-0.568-1.461C35.042,49.959,34.851,49.81,34.623,49.669z M40.035,46.02
			c-1.042,0-1.834,0.383-2.369,1.148c-0.47,0.666-0.7,1.552-0.7,2.659c0,0.561,0.043,1.063,0.136,1.512
			c0.106,0.506,0.266,0.936,0.487,1.292c0.51,0.827,1.324,1.241,2.446,1.241c1.064,0,1.856-0.377,2.375-1.137
			c0.462-0.678,0.697-1.639,0.697-2.881c0-1.135-0.234-2.035-0.697-2.699C41.881,46.398,41.091,46.02,40.035,46.02z M41.61,50.831
			c-0.037,0.398-0.105,0.74-0.208,1.023c-0.256,0.718-0.712,1.078-1.368,1.078c-0.344,0-0.637-0.113-0.878-0.342
			c-0.205-0.196-0.366-0.474-0.484-0.832c-0.1-0.293-0.17-0.639-0.216-1.031c-0.029-0.288-0.045-0.604-0.045-0.938
			c0-0.318,0.021-0.61,0.053-0.881c0.042-0.356,0.119-0.663,0.223-0.921c0.266-0.684,0.716-1.022,1.348-1.022
			c0.593,0,1.033,0.345,1.316,1.044c0.108,0.266,0.19,0.574,0.243,0.925c0.042,0.281,0.067,0.564,0.067,0.855
			C41.661,50.19,41.643,50.539,41.61,50.831z M48.086,46.02c-1,0-1.736,0.412-2.211,1.241l-0.283-1.13h-0.779v7.636h1.395v-4.721
			c0-0.573,0.118-1.046,0.352-1.419c0.284-0.441,0.699-0.661,1.243-0.661c0.447,0,0.768,0.167,0.961,0.503
			c0.162,0.281,0.244,0.686,0.244,1.217v5.081h1.396v-5.312C50.404,46.83,49.631,46.02,48.086,46.02z M56.798,47.057
			c-0.425-0.693-1.063-1.037-1.907-1.037c-0.986,0-1.714,0.395-2.196,1.182c-0.211,0.339-0.366,0.75-0.466,1.227
			c-0.093,0.43-0.139,0.906-0.139,1.427c0,0.511,0.039,0.97,0.114,1.377c0.085,0.465,0.22,0.86,0.407,1.188
			c0.431,0.772,1.126,1.156,2.081,1.156c0.771,0,1.364-0.285,1.784-0.859v0.152c0,0.38-0.012,0.678-0.044,0.893
			c-0.033,0.28-0.102,0.505-0.204,0.675c-0.226,0.387-0.686,0.58-1.373,0.58c-0.345,0-0.735-0.035-1.167-0.105
			c-0.174-0.029-0.367-0.068-0.575-0.113l-0.566-0.128v0.983c0.442,0.107,0.849,0.192,1.219,0.249C54.202,55.969,54.62,56,55.013,56
			c0.863,0,1.545-0.213,2.045-0.637c0.543-0.455,0.814-1.108,0.814-1.958v-7.274h-0.78L56.798,47.057z M56.459,50.818
			c-0.04,0.368-0.105,0.675-0.199,0.92c-0.228,0.599-0.653,0.899-1.264,0.899c-0.588,0-1-0.349-1.236-1.043
			c-0.084-0.264-0.148-0.574-0.181-0.932c-0.028-0.256-0.04-0.549-0.04-0.873c0-0.369,0.017-0.695,0.05-0.98
			c0.044-0.354,0.119-0.657,0.217-0.906c0.25-0.625,0.673-0.938,1.277-0.938c0.543,0,0.932,0.314,1.165,0.944
			c0.096,0.25,0.163,0.549,0.203,0.899c0.035,0.285,0.052,0.604,0.052,0.953C56.503,50.183,56.487,50.535,56.459,50.818z
			 M66.479,46.02c-0.767,0-1.395,0.283-1.88,0.846v-3.493h-1.394v10.395H64.6v-4.721c0-0.573,0.117-1.046,0.355-1.419
			c0.282-0.441,0.697-0.661,1.244-0.661c0.447,0,0.767,0.159,0.963,0.484c0.158,0.263,0.239,0.633,0.239,1.109v5.207h1.394v-5.272
			C68.794,46.844,68.025,46.02,66.479,46.02z M73.235,46.02c-0.716,0-1.466,0.109-2.253,0.328v0.978
			c0.377-0.108,0.707-0.19,0.99-0.242c0.362-0.071,0.698-0.104,1.009-0.104c0.491,0,0.859,0.12,1.098,0.359
			c0.102,0.1,0.176,0.228,0.231,0.378c0.062,0.199,0.089,0.459,0.089,0.777v0.716c-0.274,0-0.5,0.002-0.681,0.008
			c-0.251,0.007-0.483,0.021-0.693,0.039c-0.518,0.048-0.955,0.143-1.308,0.281c-0.428,0.168-0.754,0.407-0.975,0.725
			c-0.261,0.361-0.386,0.82-0.386,1.378c0,1.487,0.733,2.231,2.199,2.231c0.998,0,1.731-0.402,2.197-1.207l0.285,1.102h0.757v-5.312
			c0-0.766-0.197-1.353-0.59-1.76C74.774,46.247,74.116,46.02,73.235,46.02z M74.399,51.213c0,0.509-0.122,0.915-0.367,1.223
			c-0.263,0.332-0.646,0.497-1.144,0.497c-0.759,0-1.14-0.435-1.14-1.305c0-0.61,0.209-1.042,0.629-1.301
			c0.3-0.189,0.762-0.284,1.381-0.284h0.64V51.213z M73.984,45.585l-1.253-1.878h-1.185l1.427,1.878H73.984z M81.078,46.02
			c-1.002,0-1.736,0.412-2.211,1.241l-0.284-1.13h-0.779v7.636h1.394v-4.721c0-0.573,0.119-1.046,0.354-1.419
			c0.282-0.441,0.7-0.661,1.244-0.661c0.445,0,0.768,0.167,0.963,0.503C81.918,47.75,82,48.154,82,48.686v5.081h1.394v-5.312
			C83.394,46.83,82.623,46.02,81.078,46.02z M88.678,46.02c-0.769,0-1.396,0.283-1.877,0.846v-3.493h-1.395v10.395h1.395v-4.721
			c0-0.573,0.114-1.046,0.35-1.419c0.287-0.441,0.698-0.661,1.244-0.661c0.448,0,0.767,0.159,0.965,0.484
			c0.162,0.263,0.24,0.633,0.24,1.109v5.207h1.397v-5.272C90.996,46.844,90.218,46.02,88.678,46.02z M95.938,50.313h3.2V48.98h-3.2
			V50.313z M108.218,48.605c1.021-0.434,1.529-1.188,1.529-2.258c0-0.844-0.251-1.462-0.756-1.851
			c-0.449-0.345-1.099-0.519-1.95-0.519h-2.854v9.788h2.655c1.004,0,1.772-0.207,2.311-0.623c0.591-0.459,0.891-1.171,0.891-2.135
			C110.044,49.718,109.434,48.919,108.218,48.605z M105.594,44.929h1.069c0.604,0,1.028,0.132,1.271,0.396
			c0.256,0.261,0.38,0.646,0.38,1.152c0,0.606-0.144,1.047-0.431,1.32c-0.286,0.278-0.761,0.416-1.421,0.416h-0.868V44.929z
			 M108.063,52.461c-0.291,0.234-0.803,0.354-1.534,0.354h-0.935v-3.655h1.007c0.745,0,1.268,0.159,1.565,0.479
			c0.279,0.305,0.418,0.749,0.418,1.331C108.584,51.692,108.407,52.188,108.063,52.461z M117.186,47.045v-0.914h-1.393v4.721
			c0,0.573-0.121,1.048-0.36,1.418c-0.281,0.441-0.694,0.663-1.24,0.663c-0.447,0-0.771-0.168-0.969-0.505
			c-0.154-0.279-0.234-0.685-0.234-1.215v-5.082h-1.396v5.312c0,1.62,0.773,2.43,2.32,2.43c0.995,0,1.73-0.41,2.21-1.234
			l0.283,1.129h0.778v-5.456c0.441-0.104,0.757-0.291,0.949-0.559c0.256-0.358,0.395-0.937,0.405-1.732h-1.093
			C117.477,46.477,117.392,46.818,117.186,47.045z M124.295,47.083c-0.53-0.71-1.306-1.063-2.325-1.063
			c-1.039,0-1.83,0.383-2.361,1.148c-0.471,0.666-0.71,1.552-0.71,2.659c0,0.561,0.047,1.063,0.138,1.512
			c0.106,0.506,0.268,0.936,0.485,1.292c0.511,0.827,1.326,1.241,2.448,1.241c1.067,0,1.865-0.377,2.377-1.137
			c0.463-0.678,0.693-1.639,0.693-2.881c0-0.647-0.076-1.219-0.229-1.714c0.203-0.103,0.363-0.23,0.479-0.389
			c0.254-0.358,0.39-0.937,0.404-1.732h-1.094C124.637,46.512,124.532,46.869,124.295,47.083z M123.556,50.831
			c-0.042,0.398-0.116,0.74-0.213,1.023c-0.252,0.718-0.713,1.078-1.373,1.078c-0.346,0-0.631-0.113-0.868-0.342
			c-0.208-0.196-0.367-0.474-0.493-0.832c-0.101-0.293-0.171-0.639-0.209-1.031c-0.03-0.288-0.044-0.604-0.044-0.938
			c0-0.318,0.018-0.61,0.053-0.881c0.04-0.356,0.112-0.663,0.214-0.921c0.269-0.684,0.723-1.022,1.348-1.022
			c0.594,0,1.033,0.345,1.317,1.044c0.108,0.266,0.189,0.574,0.241,0.925c0.044,0.281,0.065,0.564,0.065,0.855
			C123.594,50.19,123.581,50.539,123.556,50.831z M120.977,45.585h1.007l1.428-1.878h-1.186L120.977,45.585z M129.82,52.919
			c-0.739,0-1.269-0.347-1.593-1.037c-0.126-0.275-0.22-0.604-0.283-0.984c-0.046-0.307-0.071-0.646-0.071-1.018
			c0-0.355,0.026-0.686,0.079-0.99c0.067-0.363,0.164-0.677,0.294-0.942c0.33-0.645,0.85-0.968,1.574-0.968
			c0.478,0,0.89,0.052,1.233,0.155v-0.95c-0.44-0.112-0.872-0.165-1.286-0.165c-1.14,0-1.996,0.363-2.567,1.096
			c-0.516,0.657-0.772,1.57-0.772,2.739c0,0.563,0.045,1.072,0.146,1.521c0.109,0.506,0.279,0.932,0.507,1.289
			c0.526,0.805,1.354,1.207,2.482,1.207c0.556,0,1.069-0.064,1.544-0.198v-0.905c-0.201,0.063-0.417,0.103-0.641,0.125
			C130.304,52.912,130.09,52.919,129.82,52.919z M138.231,52.907c-0.545,0-0.821-0.342-0.821-1.025V47.07h1.857v-0.939h-1.857
			v-1.833h-0.829l-0.55,1.833h-0.938v0.939h0.926v5.057c0,1.163,0.569,1.745,1.716,1.745c0.515,0,1.063-0.078,1.648-0.235v-0.921
			l-0.571,0.13C138.598,52.886,138.404,52.907,138.231,52.907z M143.847,46.02c-0.768,0-1.394,0.283-1.879,0.846v-3.493h-1.394
			v10.395h1.394v-4.721c0-0.573,0.116-1.046,0.354-1.419c0.282-0.441,0.698-0.661,1.242-0.661c0.446,0,0.769,0.159,0.965,0.484
			c0.159,0.263,0.242,0.633,0.242,1.109v5.207h1.392v-5.272C146.163,46.844,145.393,46.02,143.847,46.02z M151.349,45.585
			l-1.251-1.878h-1.185l1.427,1.878H151.349z M150.603,46.02c-0.716,0-1.466,0.109-2.252,0.328v0.978
			c0.374-0.108,0.703-0.19,0.987-0.242c0.359-0.071,0.698-0.104,1.012-0.104c0.489,0,0.855,0.12,1.094,0.359
			c0.104,0.1,0.181,0.228,0.229,0.378c0.063,0.199,0.094,0.459,0.094,0.777v0.716c-0.274,0-0.501,0.002-0.68,0.008
			c-0.253,0.007-0.484,0.021-0.693,0.039c-0.521,0.048-0.954,0.143-1.309,0.281c-0.43,0.168-0.755,0.407-0.978,0.725
			c-0.257,0.361-0.384,0.82-0.384,1.378c0,1.487,0.73,2.231,2.196,2.231c1,0,1.734-0.402,2.203-1.207l0.28,1.102h0.759v-5.312
			c0-0.766-0.195-1.353-0.59-1.76C152.144,46.247,151.483,46.02,150.603,46.02z M151.767,51.213c0,0.509-0.122,0.915-0.365,1.223
			c-0.266,0.332-0.648,0.497-1.145,0.497c-0.764,0-1.144-0.435-1.144-1.305c0-0.61,0.214-1.042,0.631-1.301
			c0.304-0.189,0.76-0.284,1.381-0.284h0.642V51.213z M158.446,46.02c-1,0-1.737,0.412-2.211,1.241l-0.284-1.13h-0.781v7.636h1.395
			v-4.721c0-0.573,0.12-1.046,0.354-1.419c0.282-0.441,0.7-0.661,1.244-0.661c0.447,0,0.768,0.167,0.964,0.503
			c0.157,0.281,0.24,0.686,0.24,1.217v5.081h1.396v-5.312C160.763,46.83,159.991,46.02,158.446,46.02z M166.047,46.02
			c-0.77,0-1.396,0.283-1.879,0.846v-3.493h-1.396v10.395h1.396v-4.721c0-0.573,0.115-1.046,0.352-1.419
			c0.283-0.441,0.697-0.661,1.243-0.661c0.445,0,0.765,0.159,0.961,0.484c0.163,0.263,0.242,0.633,0.242,1.109v5.207h1.396v-5.272
			C168.361,46.844,167.588,46.02,166.047,46.02z M176.749,52.919c-0.739,0-1.27-0.347-1.593-1.037
			c-0.129-0.275-0.219-0.604-0.284-0.984c-0.045-0.307-0.069-0.646-0.069-1.018c0-0.355,0.025-0.686,0.078-0.99
			c0.067-0.363,0.164-0.677,0.295-0.942c0.329-0.645,0.851-0.968,1.573-0.968c0.477,0,0.89,0.052,1.234,0.155v-0.95
			c-0.446-0.112-0.873-0.165-1.288-0.165c-1.139,0-1.995,0.363-2.569,1.096c-0.515,0.657-0.772,1.57-0.772,2.739
			c0,0.563,0.05,1.072,0.146,1.521c0.109,0.506,0.277,0.932,0.51,1.289c0.525,0.805,1.353,1.207,2.48,1.207
			c0.556,0,1.07-0.064,1.545-0.198v-0.905c-0.203,0.063-0.418,0.103-0.641,0.125C177.23,52.912,177.015,52.919,176.749,52.919z
			 M181.609,43.951l-1.158,1.634h0.845l0.859-0.886l0.854,0.886h0.854l-1.163-1.634H181.609z M182.157,46.02
			c-1.041,0-1.831,0.383-2.367,1.148c-0.468,0.666-0.701,1.552-0.701,2.659c0,0.561,0.046,1.063,0.137,1.512
			c0.106,0.506,0.269,0.936,0.485,1.292c0.512,0.827,1.327,1.241,2.446,1.241c1.067,0,1.86-0.377,2.38-1.137
			c0.462-0.678,0.692-1.639,0.692-2.881c0-1.135-0.23-2.035-0.692-2.699C184.008,46.398,183.217,46.02,182.157,46.02z
			 M183.738,50.831c-0.041,0.398-0.109,0.74-0.21,1.023c-0.254,0.718-0.708,1.078-1.371,1.078c-0.342,0-0.637-0.113-0.875-0.342
			c-0.204-0.196-0.364-0.474-0.485-0.832c-0.1-0.293-0.172-0.639-0.214-1.031c-0.029-0.288-0.047-0.604-0.047-0.938
			c0-0.318,0.019-0.61,0.052-0.881c0.046-0.356,0.119-0.663,0.223-0.921c0.268-0.684,0.718-1.022,1.347-1.022
			c0.595,0,1.035,0.345,1.317,1.044c0.11,0.266,0.19,0.574,0.243,0.925c0.042,0.281,0.066,0.564,0.066,0.855
			C183.784,50.19,183.768,50.539,183.738,50.831z M190.213,46.02c-0.999,0-1.74,0.412-2.215,1.241l-0.279-1.13h-0.781v7.636h1.394
			v-4.721c0-0.573,0.119-1.046,0.354-1.419c0.284-0.441,0.698-0.661,1.245-0.661c0.443,0,0.764,0.167,0.961,0.503
			c0.164,0.281,0.242,0.686,0.242,1.217v5.081h1.394v-5.312C192.527,46.83,191.756,46.02,190.213,46.02z M198.926,47.057
			c-0.432-0.693-1.064-1.037-1.906-1.037c-0.987,0-1.719,0.395-2.201,1.182c-0.207,0.339-0.363,0.75-0.461,1.227
			c-0.095,0.43-0.139,0.906-0.139,1.427c0,0.511,0.034,0.97,0.113,1.377c0.083,0.465,0.22,0.86,0.402,1.188
			c0.434,0.772,1.125,1.156,2.083,1.156c0.771,0,1.366-0.285,1.785-0.859v0.152c0,0.38-0.014,0.678-0.047,0.893
			c-0.032,0.28-0.1,0.505-0.201,0.675c-0.229,0.387-0.685,0.58-1.374,0.58c-0.344,0-0.734-0.035-1.166-0.105
			c-0.176-0.029-0.365-0.068-0.572-0.113l-0.565-0.128v0.983c0.441,0.107,0.847,0.192,1.219,0.249
			c0.433,0.067,0.849,0.099,1.241,0.099c0.863,0,1.549-0.213,2.05-0.637c0.539-0.455,0.813-1.108,0.813-1.958v-7.274h-0.779
			L198.926,47.057z M198.583,50.818c-0.036,0.368-0.104,0.675-0.196,0.92c-0.231,0.599-0.651,0.899-1.261,0.899
			c-0.591,0-1.002-0.349-1.239-1.043c-0.086-0.264-0.146-0.574-0.181-0.932c-0.029-0.256-0.04-0.549-0.04-0.873
			c0-0.369,0.014-0.695,0.055-0.98c0.041-0.354,0.112-0.657,0.214-0.906c0.246-0.625,0.671-0.938,1.275-0.938
			c0.544,0,0.933,0.314,1.165,0.944c0.095,0.25,0.164,0.549,0.203,0.899c0.034,0.285,0.054,0.604,0.054,0.953
			C198.632,50.183,198.614,50.535,198.583,50.818z"/>
	</g>
</g>
</svg>
