<?xml version="1.0" encoding="utf-8"?>
<!-- Generator: Adobe Illustrator 16.0.0, SVG Export Plug-In . SVG Version: 6.00 Build 0)  -->
<!DOCTYPE svg PUBLIC "-//W3C//DTD SVG 1.0//EN" "http://www.w3.org/TR/2001/REC-SVG-20010904/DTD/svg10.dtd">
<svg version="1.0" id="Layer_1" xmlns="http://www.w3.org/2000/svg" xmlns:xlink="http://www.w3.org/1999/xlink" x="0px" y="0px"
	 width="150px" height="60px" viewBox="14 4 150 60" enable-background="new 14 4 150 60" xml:space="preserve">
<g>
	<path fill="#D8C663" d="M162.314,5.765v56.471H15.686V5.765H162.314 M164,4H14v60h150V4L164,4z"/>
</g>
<g>
	<g>
		<g>
			<polyline id="SVGID_1_" fill="#D8C663" points="88.704,56.01 78.75,27.853 83.485,27.853 90.951,51.589 98.238,27.853 
				102.883,27.853 93.112,56.01 88.704,56.01 			"/>
		</g>
	</g>
	<g>
		<g>
			<rect id="SVGID_3_" x="104.51" y="27.853" fill="#D8C663" width="3.971" height="28.157"/>
		</g>
	</g>
	<g>
		<g>
			<rect id="SVGID_5_" x="112.725" y="16.569" fill="#D8C663" width="3.955" height="39.44"/>
		</g>
	</g>
	<g>
		<g>
			<rect id="SVGID_7_" x="120.645" y="16.569" fill="#D8C663" width="3.969" height="39.44"/>
		</g>
	</g>
	<g>
		<g>
			<path id="SVGID_9_" fill="#D8C663" d="M126.885,46.863h4.744c0.199,1.794,0.918,3.184,2.115,4.155
				c1.213,0.982,2.834,1.473,4.883,1.473c2.355,0,4.178-0.376,5.498-1.126c1.291-0.766,1.957-1.807,1.957-3.14
				c0-0.973-0.316-1.712-0.918-2.216c-0.613-0.506-1.75-0.927-3.418-1.252l-5.35-1.111c-3.279-0.636-5.5-1.535-6.662-2.657
				c-1.145-1.13-1.721-2.817-1.721-5.063c0-2.938,0.914-5.187,2.732-6.712c1.826-1.527,4.492-2.303,8.008-2.303
				c3.523,0,6.236,0.8,8.102,2.382c1.855,1.579,2.797,3.867,2.797,6.838v0.206h-4.205c-0.15-1.729-0.797-3.014-1.922-3.855
				c-1.139-0.83-2.799-1.25-5.002-1.25c-1.988,0-3.523,0.312-4.57,0.979c-1.059,0.639-1.584,1.573-1.584,2.813
				c0,1.081,0.318,1.884,0.959,2.431c0.635,0.537,2.094,1.047,4.4,1.501l5.189,1.011c2.863,0.563,4.85,1.434,5.963,2.625
				c1.105,1.191,1.664,2.956,1.664,5.319c0,2.906-1.016,5.157-3.086,6.734c-2.059,1.57-5.006,2.361-8.832,2.361
				c-3.705,0-6.521-0.823-8.451-2.498C128.266,52.861,127.154,50.311,126.885,46.863"/>
		</g>
	</g>
	<g>
		<g>
			<path id="SVGID_11_" fill="#D8C663" d="M27.455,46.863h4.75c0.202,1.794,0.901,3.184,2.112,4.155
				c1.212,0.982,2.841,1.473,4.878,1.473c2.364,0,4.197-0.376,5.494-1.126c1.306-0.766,1.973-1.807,1.973-3.14
				c0-0.973-0.308-1.712-0.929-2.216c-0.605-0.506-1.738-0.927-3.403-1.252l-5.353-1.111c-3.281-0.636-5.501-1.535-6.66-2.657
				c-1.147-1.13-1.732-2.817-1.732-5.063c0-2.938,0.917-5.187,2.733-6.712c1.838-1.527,4.5-2.303,8.018-2.303
				c3.534,0,6.233,0.8,8.083,2.382c1.867,1.579,2.812,3.867,2.812,6.838v0.206h-4.21c-0.139-1.729-0.779-3.014-1.915-3.855
				c-1.134-0.83-2.805-1.25-4.99-1.25c-1.997,0-3.536,0.312-4.59,0.979c-1.051,0.639-1.576,1.573-1.576,2.813
				c0,1.081,0.314,1.884,0.941,2.431c0.641,0.537,2.127,1.047,4.414,1.501l5.201,1.011c2.863,0.563,4.847,1.434,5.95,2.625
				c1.118,1.191,1.661,2.956,1.661,5.319c0,2.906-1.018,5.157-3.075,6.734c-2.059,1.57-4.999,2.361-8.848,2.361
				c-3.696,0-6.507-0.823-8.44-2.498C28.832,52.861,27.737,50.311,27.455,46.863"/>
		</g>
	</g>
	<g>
		<g>
			<path id="SVGID_13_" fill="#D8C663" d="M109.287,19.604c0,1.3-1.051,2.347-2.336,2.347c-1.314,0-2.354-1.047-2.354-2.347
				c0-1.301,1.039-2.344,2.354-2.344C108.236,17.26,109.287,18.303,109.287,19.604"/>
		</g>
	</g>
	<g>
		<g>
			<path id="SVGID_15_" fill="#D8C663" d="M76.964,47.842V36.489c0-3.427-0.812-5.842-2.414-7.255
				c-1.604-1.41-4.363-2.118-8.249-2.118c-3.585,0-6.319,0.836-8.185,2.508c-1.882,1.667-2.89,4.155-3.036,7.463l4.377-0.031
				c0.113-1.934,0.726-3.335,1.834-4.212c1.124-0.881,2.889-1.311,5.308-1.311c2.144,0,3.685,0.342,4.628,1.017
				c0.956,0.669,1.428,1.762,1.428,3.25c0,1.982-2.006,3.201-5.979,3.674c-0.773,0.098-1.365,0.169-1.778,0.229
				c-2.352,0.315-4.05,0.605-5.097,0.871c-1.036,0.271-1.842,0.609-2.383,1.025c-1.111,0.821-1.967,1.803-2.521,2.941
				c-0.562,1.134-0.845,2.435-0.845,3.881c0,2.679,0.793,4.756,2.364,6.243c1.57,1.493,3.794,2.237,6.643,2.237
				c2.146,0,4.053-0.435,5.73-1.297c1.665-0.86,3.028-2.118,4.079-3.76c0.211,1.521,0.31,3.163,0.965,3.865
				c0.67,0.691,2.439,0.604,3.174,0.505c0.229-0.032,0.482-0.032,0.712-0.032C77.722,56.184,76.964,49.418,76.964,47.842
				 M72.743,45.961c0,1.851-0.857,3.417-2.556,4.698c-1.695,1.29-3.837,1.933-6.411,1.933c-1.609,0-2.858-0.392-3.758-1.151
				c-0.896-0.781-1.342-1.847-1.342-3.215c0-1.341,0.387-2.326,1.226-2.951c0.816-0.635,2.758-1.161,5.781-1.568
				c1.867-0.254,3.373-0.539,4.5-0.864c1.124-0.31,1.972-0.68,2.559-1.091V45.961z"/>
		</g>
	</g>
</g>
</svg>
